<?xml version="1.0" encoding="utf-8"?>
<!-- Generator: Adobe Illustrator 22.1.0, SVG Export Plug-In . SVG Version: 6.00 Build 0)  -->
<svg version="1.1" id="Layer_1" xmlns="http://www.w3.org/2000/svg" xmlns:xlink="http://www.w3.org/1999/xlink" x="0px" y="0px"
	 viewBox="0 0 100.2 98.5" style="enable-background:new 0 0 100.2 98.5;" xml:space="preserve">
<style type="text/css">
	.st0{fill:#C71618;}
</style>
<g>
	<path class="st0" d="M41.5,52.8c0.8,0.8,2.4,2.4,3.5,3.5c1.1,1.1,2.8,3.2,3.8,4.6c1,1.4,2.7,3.8,3.7,5.4s2.3,3.7,2.9,4.7
		c0.6,1.1,1.3,2.4,1.7,3c0.4,0.6,0.9,1.2,1.3,1.4c0.3,0.2,0.9,0.2,1.2,0.1c0.4-0.1,0.9-0.7,1.3-1.4c0.4-0.6,1.3-2.6,2.1-4.3
		s2.2-4.8,3.2-6.8c1-2,2.7-5.4,3.9-7.4c1.2-2,3.4-5.5,5-7.8c1.6-2.3,4.6-6.1,6.6-8.6c2-2.5,5.2-5.9,6.9-7.6c1.8-1.7,3.6-3.6,4.2-4.2
		c0.6-0.6,1.1-1.4,1.3-1.8c0.2-0.4,0.2-1.2,0.1-1.7c-0.1-0.5-0.5-1.2-0.9-1.4c-0.4-0.3-1.1-0.5-1.6-0.5c-0.5,0-1.3,0.1-1.9,0.3
		c-0.6,0.1-1.6,0.5-2.3,0.8s-2.2,1.3-3.5,2.1c-1.3,0.8-3.7,2.8-5.4,4.4c-1.7,1.6-4.8,4.6-6.9,6.8c-2.1,2.2-5.3,5.6-7.3,7.7
		s-4.2,4.6-5,5.6c-0.8,1-1.6,1.9-1.8,2c-0.2,0-0.6,0-0.9-0.1c-0.3-0.1-1.3-0.6-2.2-1.1c-0.9-0.5-2.3-1.2-3.1-1.5
		c-0.8-0.4-2.3-1-3.3-1.4c-1.1-0.4-2.5-0.8-3.2-0.8c-0.7-0.1-1.8,0-2.5,0.1c-0.7,0.1-1.6,0.5-1.9,0.8c-0.3,0.3-0.7,1-0.8,1.6
		c-0.1,0.5-0.2,1.3,0,1.7C39.9,51,40.6,52,41.5,52.8z"/>
</g>
</svg>
