<?xml version="1.0" encoding="utf-8"?>
<!-- Generator: Adobe Illustrator 22.1.0, SVG Export Plug-In . SVG Version: 6.00 Build 0)  -->
<svg version="1.1" id="Layer_1" xmlns="http://www.w3.org/2000/svg" xmlns:xlink="http://www.w3.org/1999/xlink" x="0px" y="0px"
	 viewBox="0 0 130 130" style="enable-background:new 0 0 130 130;" xml:space="preserve">
<style type="text/css">
	.st0{fill:none;stroke:#544F4E;stroke-width:10;stroke-miterlimit:10;}
	.st1{fill:none;stroke:#544F4E;stroke-width:5;stroke-miterlimit:10;}
	.st2{fill:#FFFFFF;stroke:#544F4E;stroke-width:2;stroke-miterlimit:10;}
	.st3{fill:none;stroke:#544F4E;stroke-width:2;stroke-miterlimit:10;}
	.st4{fill:none;stroke:#544F4E;stroke-width:6;stroke-miterlimit:10;}
	.st5{fill:none;stroke:#544F4E;stroke-width:4;stroke-miterlimit:10;}
	.st6{fill:#544F4E;}
</style>
<path class="st0" d="M125,65c0,33.1-26.9,60-60,60C31.9,125,5,98.1,5,65C5,31.9,31.9,5,65,5C98.1,5,125,31.9,125,65z"/>
<g>
	<g>
		<path class="st1" d="M91.1,54.2v-8.4c0-0.9,0-2.5,0-3.4V23.1c0-0.9-0.8-1.7-1.7-1.7H72.8c-0.9,0-2.5,0-3.4,0H52.6
			c-0.9,0-2,0.1-2.4,0.2c-0.4,0.1-0.7,1.5-0.7,2.4v10.7"/>
	</g>
	<line class="st2" x1="57.8" y1="30.4" x2="82.6" y2="30.4"/>
</g>
<g>
	<g>
		<path class="st1" d="M80.6,52.5v-16c0-0.9-0.8-1.7-1.7-1.7H62.3c-0.9,0-2.5,0-3.4,0H42.1c-0.9,0-2,0.1-2.4,0.2
			c-0.4,0.1-0.7,1.5-0.7,2.4v10.8"/>
	</g>
	<line class="st3" x1="47.3" y1="43.7" x2="72.1" y2="43.7"/>
</g>
<g>
	<g>
		<path class="st1" d="M71,54.7v-4.8c0-0.9-0.8-1.7-1.7-1.7H52.7c-0.9,0-2.5,0-3.4,0H32.5c-0.9,0-2,0.1-2.4,0.2
			c-0.4,0.1-0.7,1.5-0.7,2.4v47.5c0,0.9,0.2,1.9,0.3,2.2c0.2,0.3,1.9,0.5,2.9,0.5h25"/>
	</g>
	<line class="st2" x1="37.7" y1="57.2" x2="62.5" y2="57.2"/>
	<line class="st2" x1="37.7" y1="64.2" x2="57.6" y2="64.2"/>
	<line class="st2" x1="37.7" y1="71.1" x2="53.4" y2="71.1"/>
	<line class="st2" x1="37.7" y1="78" x2="51.8" y2="78"/>
	<line class="st2" x1="37.7" y1="85" x2="51.8" y2="85"/>
	<line class="st2" x1="37.7" y1="91.9" x2="53.4" y2="91.9"/>
</g>
<g>
	
		<ellipse transform="matrix(0.9996 -2.934227e-02 2.934227e-02 0.9996 -2.3717 2.4078)" class="st4" cx="80.9" cy="82" rx="17.9" ry="17.9"/>
	<path class="st5" d="M90.6,82c0,5.4-4.3,9.7-9.7,9.7s-9.7-4.4-9.7-9.7c0-5.4,4.3-9.7,9.7-9.7S90.6,76.6,90.6,82z"/>
	<g>
		<polygon class="st6" points="83.5,107.9 85.7,101.1 75.9,101.1 78.1,107.9 		"/>
		<polygon class="st6" points="78.1,56.2 75.9,62.9 85.7,62.9 83.5,56.2 		"/>
	</g>
	<g>
		<polygon class="st6" points="55,84.7 61.8,86.9 61.8,77.1 55,79.3 		"/>
		<polygon class="st6" points="106.7,79.3 99.9,77.1 99.9,86.9 106.7,84.7 		"/>
	</g>
	<g>
		<g>
			<polygon class="st6" points="70.2,105.7 75.4,101 67,96 65.5,102.9 			"/>
			<polygon class="st6" points="91.6,58.3 86.3,63.1 94.7,68 96.2,61.1 			"/>
		</g>
		<g>
			<polygon class="st6" points="57.1,71.3 61.9,76.6 66.8,68.2 59.9,66.7 			"/>
			<polygon class="st6" points="104.5,92.7 99.8,87.4 94.8,95.9 101.7,97.4 			"/>
		</g>
	</g>
	<g>
		<g>
			<polygon class="st6" points="59.9,97.3 66.8,95.8 61.9,87.4 57.2,92.7 			"/>
			<polygon class="st6" points="101.9,66.7 95,68.2 99.9,76.7 104.6,71.4 			"/>
		</g>
		<g>
			<polygon class="st6" points="65.6,61 67,68 75.5,63.1 70.2,58.3 			"/>
			<polygon class="st6" points="96.1,103 94.7,96.1 86.2,101 91.5,105.7 			"/>
		</g>
	</g>
</g>
</svg>
