<?xml version="1.0" encoding="iso-8859-1"?>
<!-- Generator: Adobe Illustrator 16.0.0, SVG Export Plug-In . SVG Version: 6.00 Build 0)  -->
<!DOCTYPE svg PUBLIC "-//W3C//DTD SVG 1.1//EN" "http://www.w3.org/Graphics/SVG/1.1/DTD/svg11.dtd" [
	<!ENTITY ns_flows "http://ns.adobe.com/Flows/1.0/">
	<!ENTITY ns_extend "http://ns.adobe.com/Extensibility/1.0/">
	<!ENTITY ns_ai "http://ns.adobe.com/AdobeIllustrator/10.0/">
	<!ENTITY ns_graphs "http://ns.adobe.com/Graphs/1.0/">
]>
<svg version="1.1" id="Calque_1" xmlns:x="&ns_extend;" xmlns:i="&ns_ai;" xmlns:graph="&ns_graphs;"
	 xmlns="http://www.w3.org/2000/svg" xmlns:xlink="http://www.w3.org/1999/xlink" xmlns:a="http://ns.adobe.com/AdobeSVGViewerExtensions/3.0/"
	 x="0px" y="0px" width="129.99px" height="129.991px" viewBox="0 0 129.99 129.991" enable-background="new 0 0 129.99 129.991"
	 xml:space="preserve">
<circle fill="none" stroke="#4C4B4B" stroke-width="10" stroke-miterlimit="10" cx="64.995" cy="64.995" r="59.995"/>
<g>
	<g>
		<g>
			<path fill="#FFFFFF" d="M91.12,45.842c0-0.936,0-2.466,0-3.401v-19.36c0-0.936-0.766-1.701-1.701-1.701H72.847
				c-0.936,0-2.465,0-3.4,0H52.642c-0.936,0-2.037,0.095-2.449,0.21s-0.748,1.495-0.748,2.431v47.457
				c0,0.936,0.151,1.912,0.335,2.171s1.926,0.471,2.862,0.471h35.281c0.936,0,2.037-0.096,2.449-0.211s0.748-1.495,0.748-2.431
				V45.842z"/>
			<path fill="none" stroke="#4C4B4B" stroke-width="5" stroke-miterlimit="10" d="M91.12,45.842c0-0.936,0-2.466,0-3.401v-19.36
				c0-0.936-0.766-1.701-1.701-1.701H72.847c-0.936,0-2.465,0-3.4,0H52.642c-0.936,0-2.037,0.095-2.449,0.21
				s-0.748,1.495-0.748,2.431v47.457c0,0.936,0.151,1.912,0.335,2.171s1.926,0.471,2.862,0.471h35.281
				c0.936,0,2.037-0.096,2.449-0.211s0.748-1.495,0.748-2.431V45.842z"/>
		</g>
		
			<line fill="#FFFFFF" stroke="#4C4B4B" stroke-width="2" stroke-miterlimit="10" x1="57.767" y1="30.396" x2="82.605" y2="30.396"/>
		
			<line fill="#FFFFFF" stroke="#4C4B4B" stroke-width="2" stroke-miterlimit="10" x1="57.767" y1="37.335" x2="82.605" y2="37.335"/>
		
			<line fill="#FFFFFF" stroke="#4C4B4B" stroke-width="2" stroke-miterlimit="10" x1="57.767" y1="44.275" x2="82.605" y2="44.275"/>
		
			<line fill="#FFFFFF" stroke="#4C4B4B" stroke-width="2" stroke-miterlimit="10" x1="57.767" y1="51.214" x2="82.605" y2="51.214"/>
		
			<line fill="#FFFFFF" stroke="#4C4B4B" stroke-width="2" stroke-miterlimit="10" x1="57.767" y1="58.154" x2="82.605" y2="58.154"/>
		
			<line fill="#FFFFFF" stroke="#4C4B4B" stroke-width="2" stroke-miterlimit="10" x1="57.767" y1="65.093" x2="82.605" y2="65.093"/>
	</g>
	<g>
		<g>
			<path fill="#FFFFFF" d="M80.605,59.186c0-0.936,0-2.466,0-3.401v-19.36c0-0.936-0.765-1.701-1.7-1.701H62.333
				c-0.936,0-2.466,0-3.401,0H42.127c-0.936,0-2.037,0.095-2.449,0.21s-0.748,1.495-0.748,2.431v47.456
				c0,0.936,0.151,1.912,0.335,2.172c0.184,0.258,1.926,0.469,2.862,0.469h35.282c0.936,0,2.037-0.094,2.448-0.209
				s0.748-1.496,0.748-2.432V59.186z"/>
			<path fill="none" stroke="#4C4B4B" stroke-width="5" stroke-miterlimit="10" d="M80.605,59.186c0-0.936,0-2.466,0-3.401v-19.36
				c0-0.936-0.765-1.701-1.7-1.701H62.333c-0.936,0-2.466,0-3.401,0H42.127c-0.936,0-2.037,0.095-2.449,0.21
				s-0.748,1.495-0.748,2.431v47.456c0,0.936,0.151,1.912,0.335,2.172c0.184,0.258,1.926,0.469,2.862,0.469h35.282
				c0.936,0,2.037-0.094,2.448-0.209s0.748-1.496,0.748-2.432V59.186z"/>
		</g>
		<line fill="#FFFFFF" stroke="#4C4B4B" stroke-width="2" stroke-miterlimit="10" x1="47.252" y1="43.74" x2="72.091" y2="43.74"/>
		
			<line fill="#FFFFFF" stroke="#4C4B4B" stroke-width="2" stroke-miterlimit="10" x1="47.252" y1="50.679" x2="72.091" y2="50.679"/>
		
			<line fill="#FFFFFF" stroke="#4C4B4B" stroke-width="2" stroke-miterlimit="10" x1="47.252" y1="57.619" x2="72.091" y2="57.619"/>
		
			<line fill="#FFFFFF" stroke="#4C4B4B" stroke-width="2" stroke-miterlimit="10" x1="47.252" y1="64.558" x2="72.091" y2="64.558"/>
		
			<line fill="#FFFFFF" stroke="#4C4B4B" stroke-width="2" stroke-miterlimit="10" x1="47.252" y1="71.497" x2="72.091" y2="71.497"/>
		
			<line fill="#FFFFFF" stroke="#4C4B4B" stroke-width="2" stroke-miterlimit="10" x1="47.252" y1="78.437" x2="72.091" y2="78.437"/>
	</g>
	<g>
		<g>
			<path fill="#FFFFFF" d="M71.016,72.677c0-0.936,0-2.467,0-3.402V49.915c0-0.936-0.765-1.701-1.7-1.701H52.743
				c-0.936,0-2.466,0-3.401,0H32.537c-0.936,0-2.037,0.095-2.449,0.21s-0.748,1.495-0.748,2.431v47.456
				c0,0.936,0.151,1.914,0.335,2.172s1.926,0.471,2.862,0.471h35.282c0.936,0,2.037-0.096,2.448-0.211s0.748-1.496,0.748-2.432
				V72.677z"/>
			<path fill="none" stroke="#4C4B4B" stroke-width="5" stroke-miterlimit="10" d="M71.016,72.677c0-0.936,0-2.467,0-3.402V49.915
				c0-0.936-0.765-1.701-1.7-1.701H52.743c-0.936,0-2.466,0-3.401,0H32.537c-0.936,0-2.037,0.095-2.449,0.21
				s-0.748,1.495-0.748,2.431v47.456c0,0.936,0.151,1.914,0.335,2.172s1.926,0.471,2.862,0.471h35.282
				c0.936,0,2.037-0.096,2.448-0.211s0.748-1.496,0.748-2.432V72.677z"/>
		</g>
		<line fill="#FFFFFF" stroke="#4C4B4B" stroke-width="2" stroke-miterlimit="10" x1="37.663" y1="57.23" x2="62.501" y2="57.23"/>
		
			<line fill="#FFFFFF" stroke="#4C4B4B" stroke-width="2" stroke-miterlimit="10" x1="37.663" y1="64.169" x2="62.501" y2="64.169"/>
		
			<line fill="#FFFFFF" stroke="#4C4B4B" stroke-width="2" stroke-miterlimit="10" x1="37.663" y1="71.108" x2="62.501" y2="71.108"/>
		
			<line fill="#FFFFFF" stroke="#4C4B4B" stroke-width="2" stroke-miterlimit="10" x1="37.663" y1="78.048" x2="62.501" y2="78.048"/>
		
			<line fill="#FFFFFF" stroke="#4C4B4B" stroke-width="2" stroke-miterlimit="10" x1="37.663" y1="84.987" x2="62.501" y2="84.987"/>
		
			<line fill="#FFFFFF" stroke="#4C4B4B" stroke-width="2" stroke-miterlimit="10" x1="37.663" y1="91.927" x2="62.501" y2="91.927"/>
	</g>
</g>
<g>
	<circle fill="#FFFFFF" cx="80.855" cy="82.015" r="29.038"/>
	<circle fill="none" stroke="#4C4B4B" stroke-width="6" stroke-miterlimit="10" cx="80.855" cy="82.015" r="17.859"/>
	<circle fill="none" stroke="#4C4B4B" stroke-width="4" stroke-miterlimit="10" cx="80.855" cy="82.015" r="9.714"/>
	<g>
		<polygon fill="#4C4B4B" points="83.503,107.868 85.696,101.13 75.914,101.13 78.108,107.868 		"/>
		<polygon fill="#4C4B4B" points="78.108,56.211 75.914,62.949 85.696,62.949 83.503,56.211 		"/>
	</g>
	<g>
		<polygon fill="#4C4B4B" points="55.027,84.712 61.764,86.905 61.764,77.124 55.027,79.317 		"/>
		<polygon fill="#4C4B4B" points="106.685,79.317 99.946,77.124 99.946,86.905 106.685,84.712 		"/>
	</g>
	<g>
		<g>
			<polygon fill="#4C4B4B" points="70.15,105.667 75.444,100.958 66.999,96.021 65.493,102.944 			"/>
			<polygon fill="#4C4B4B" points="91.56,58.347 86.265,63.057 94.71,67.992 96.216,61.069 			"/>
		</g>
		<g>
			<polygon fill="#4C4B4B" points="57.146,71.315 61.856,76.61 66.792,68.165 59.869,66.658 			"/>
			<polygon fill="#4C4B4B" points="104.466,92.726 99.757,87.431 94.821,95.874 101.745,97.382 			"/>
		</g>
	</g>
	<g>
		<g>
			<polygon fill="#4C4B4B" points="59.915,97.335 66.843,95.849 61.933,87.39 57.207,92.671 			"/>
			<polygon fill="#4C4B4B" points="101.885,66.739 94.956,68.225 99.866,76.685 104.593,71.405 			"/>
		</g>
		<g>
			<polygon fill="#4C4B4B" points="65.553,61.04 67.038,67.968 75.498,63.058 70.219,58.332 			"/>
			<polygon fill="#4C4B4B" points="96.147,103.011 94.664,96.081 86.204,100.989 91.483,105.716 			"/>
		</g>
	</g>
</g>
</svg>
