<?xml version="1.0" encoding="utf-8"?>
<!-- Generator: Adobe Illustrator 22.1.0, SVG Export Plug-In . SVG Version: 6.00 Build 0)  -->
<svg version="1.1" id="Layer_1" xmlns="http://www.w3.org/2000/svg" xmlns:xlink="http://www.w3.org/1999/xlink" x="0px" y="0px"
	 viewBox="0 0 130 130" style="enable-background:new 0 0 130 130;" xml:space="preserve">
<style type="text/css">
	.st0{fill:none;stroke:#544F4E;stroke-width:10;stroke-miterlimit:10;}
	.st1{fill:none;stroke:#544F4E;stroke-width:4.5;stroke-miterlimit:10;}
	.st2{fill:none;stroke:#544F4E;stroke-width:4.2124;stroke-miterlimit:10;}
	.st3{fill:#544F4E;}
</style>
<path class="st0" d="M125,65c0,33.1-26.9,60-60,60S5,98.1,5,65C5,31.9,31.9,5,65,5S125,31.9,125,65z"/>
<g>
	<path class="st1" d="M34.6,93.8V39.3c0-2,1.2-3.7,2.8-3.7h31.7h29.8h4.1c1.5,0,2.8,1.6,2.8,3.7v20"/>
</g>
<line class="st2" x1="42" y1="31.7" x2="62.9" y2="31.7"/>
<path class="st3" d="M70.2,82.5c0-13.5,11-24.5,24.5-24.5c2.1,0,4.1,0.3,6,0.7c-2.3-4-5-6.4-7.9-6.4H17.2c8.2,0,14.8,18.5,14.8,41.4
	H73C71.2,90.4,70.2,86.6,70.2,82.5z"/>
<g>
	<g>
		<path class="st3" d="M98.7,96.7c0,3.1-1.8,5.7-4,5.7c-2.2,0-4-2.6-4-5.7V68.4c0-3.1,1.8-5.7,4-5.7c2.2,0,4,2.6,4,5.7V96.7z"/>
	</g>
	<g>
		<path class="st3" d="M80.5,86.5c-3.1,0-5.7-1.8-5.7-4c0-2.2,2.6-4,5.7-4h28.4c3.1,0,5.7,1.8,5.7,4c0,2.2-2.6,4-5.7,4H80.5z"/>
	</g>
</g>
</svg>
