<?xml version="1.0" encoding="iso-8859-1"?>
<!-- Generator: Adobe Illustrator 16.0.0, SVG Export Plug-In . SVG Version: 6.00 Build 0)  -->
<!DOCTYPE svg PUBLIC "-//W3C//DTD SVG 1.1//EN" "http://www.w3.org/Graphics/SVG/1.1/DTD/svg11.dtd" [
	<!ENTITY ns_flows "http://ns.adobe.com/Flows/1.0/">
	<!ENTITY ns_extend "http://ns.adobe.com/Extensibility/1.0/">
	<!ENTITY ns_ai "http://ns.adobe.com/AdobeIllustrator/10.0/">
	<!ENTITY ns_graphs "http://ns.adobe.com/Graphs/1.0/">
]>
<svg version="1.1" id="Calque_1" xmlns:x="&ns_extend;" xmlns:i="&ns_ai;" xmlns:graph="&ns_graphs;"
	 xmlns="http://www.w3.org/2000/svg" xmlns:xlink="http://www.w3.org/1999/xlink" xmlns:a="http://ns.adobe.com/AdobeSVGViewerExtensions/3.0/"
	 x="0px" y="0px" width="129.99px" height="129.991px" viewBox="0 0 129.99 129.991" enable-background="new 0 0 129.99 129.991"
	 xml:space="preserve">
<g>
	<g>
		<path fill="#4C4B4B" d="M94.199,60.071l13.092,24.922c0.816,1.553,0.217,3.479-1.339,4.297l-3.972,2.084
			c-1.556,0.818-3.479,0.221-4.296-1.334L84.593,65.12"/>
		<circle fill="none" stroke="#4C4B4B" stroke-width="5" stroke-miterlimit="10" cx="79.28" cy="43.335" r="22.918"/>
	</g>
	<g>
		<path fill="#4C4B4B" d="M75.425,42.578l-7.746-14.442h7.519l2.55,5.604c0.334,0.699,0.676,1.435,1.025,2.21
			c0.35,0.774,0.737,1.633,1.163,2.573h0.181c0.335-0.94,0.652-1.799,0.957-2.573c0.304-0.775,0.607-1.511,0.911-2.21l2.369-5.604
			h7.153l-7.701,14.761l8.201,14.942h-7.471L81.62,51.78c-0.395-0.79-0.767-1.572-1.115-2.346c-0.351-0.774-0.723-1.618-1.117-2.529
			h-0.182c-0.365,0.911-0.715,1.754-1.048,2.529c-0.335,0.774-0.669,1.557-1.002,2.346l-2.78,6.059h-7.151L75.425,42.578z"/>
	</g>
	<path fill="#4C4B4B" d="M29.288,41.646h3.628V29.964h-2.883v-1.317c0.729-0.133,1.363-0.294,1.901-0.484
		c0.538-0.191,1.023-0.418,1.454-0.684h1.565v14.167h3.282v1.69h-8.948V41.646z"/>
	<path fill="#4C4B4B" d="M46.661,41.646h3.628V29.964h-2.883v-1.317c0.729-0.133,1.363-0.294,1.901-0.484
		c0.538-0.191,1.022-0.418,1.454-0.684h1.565v14.167h3.281v1.69h-8.947V41.646z"/>
	<path fill="#4C4B4B" d="M33.513,73.459c-1.607,0-2.858-0.713-3.753-2.138c-0.896-1.425-1.343-3.472-1.343-6.14
		c0-2.667,0.447-4.697,1.343-6.089c0.895-1.391,2.146-2.087,3.753-2.087c1.591,0,2.833,0.696,3.728,2.087
		c0.895,1.393,1.342,3.422,1.342,6.089c0,2.668-0.447,4.715-1.342,6.14S35.104,73.459,33.513,73.459z M33.513,71.819
		c0.463,0,0.882-0.128,1.255-0.385c0.372-0.257,0.695-0.654,0.969-1.193s0.485-1.227,0.634-2.063
		c0.149-0.838,0.224-1.836,0.224-2.996c0-1.159-0.075-2.153-0.224-2.982c-0.149-0.829-0.36-1.504-0.634-2.025
		c-0.273-0.522-0.597-0.907-0.969-1.156c-0.373-0.248-0.792-0.373-1.255-0.373c-0.464,0-0.887,0.125-1.268,0.373
		c-0.381,0.25-0.708,0.634-0.981,1.156c-0.273,0.521-0.485,1.197-0.634,2.025c-0.149,0.83-0.224,1.823-0.224,2.982
		c0,2.32,0.286,4.006,0.858,5.059C31.834,71.293,32.584,71.819,33.513,71.819z"/>
	<path fill="#4C4B4B" d="M46.661,71.47h3.628V59.789h-2.883v-1.317c0.729-0.133,1.363-0.293,1.901-0.484
		c0.538-0.191,1.022-0.418,1.454-0.684h1.565V71.47h3.281v1.69h-8.947V71.47z"/>
	<path fill="#4C4B4B" d="M29.288,101.295h3.628V89.614h-2.883v-1.316c0.729-0.135,1.363-0.295,1.901-0.484
		c0.538-0.191,1.023-0.418,1.454-0.686h1.565v14.168h3.282v1.689h-8.948V101.295z"/>
	<path fill="#4C4B4B" d="M50.886,103.284c-1.607,0-2.859-0.713-3.753-2.139c-0.896-1.424-1.343-3.469-1.343-6.139
		c0-2.668,0.447-4.697,1.343-6.09c0.894-1.391,2.146-2.086,3.753-2.086c1.59,0,2.833,0.695,3.728,2.086
		c0.895,1.393,1.343,3.422,1.343,6.09c0,2.67-0.448,4.715-1.343,6.139C53.719,102.571,52.476,103.284,50.886,103.284z
		 M50.886,101.643c0.463,0,0.882-0.127,1.254-0.385c0.373-0.256,0.696-0.654,0.97-1.191c0.273-0.541,0.485-1.229,0.634-2.064
		c0.148-0.838,0.223-1.836,0.223-2.996c0-1.158-0.075-2.152-0.223-2.982c-0.149-0.828-0.361-1.504-0.634-2.025
		s-0.597-0.906-0.97-1.156c-0.373-0.248-0.792-0.371-1.254-0.371c-0.464,0-0.887,0.123-1.268,0.371
		c-0.381,0.25-0.708,0.635-0.981,1.156s-0.485,1.197-0.634,2.025c-0.149,0.83-0.223,1.824-0.223,2.982
		c0,2.32,0.286,4.006,0.857,5.061C49.208,101.118,49.958,101.643,50.886,101.643z"/>
	<path fill="#4C4B4B" d="M64.033,101.295h3.628V89.614h-2.883v-1.316c0.729-0.135,1.363-0.295,1.902-0.484
		c0.537-0.191,1.021-0.418,1.453-0.686h1.565v14.168h3.282v1.689h-8.948V101.295z"/>
	<path fill="#4C4B4B" d="M85.631,103.284c-1.606,0-2.858-0.713-3.753-2.139c-0.895-1.424-1.343-3.469-1.343-6.139
		c0-2.668,0.448-4.697,1.343-6.09c0.895-1.391,2.146-2.086,3.753-2.086c1.591,0,2.833,0.695,3.728,2.086
		c0.896,1.393,1.343,3.422,1.343,6.09c0,2.67-0.447,4.715-1.343,6.139C88.464,102.571,87.222,103.284,85.631,103.284z
		 M85.631,101.643c0.463,0,0.883-0.127,1.255-0.385c0.373-0.256,0.695-0.654,0.969-1.191c0.273-0.541,0.485-1.229,0.635-2.064
		c0.148-0.838,0.223-1.836,0.223-2.996c0-1.158-0.074-2.152-0.223-2.982c-0.149-0.828-0.361-1.504-0.635-2.025
		s-0.596-0.906-0.969-1.156c-0.372-0.248-0.792-0.371-1.255-0.371c-0.464,0-0.886,0.123-1.268,0.371
		c-0.381,0.25-0.708,0.635-0.981,1.156s-0.484,1.197-0.635,2.025c-0.148,0.83-0.223,1.824-0.223,2.982
		c0,2.32,0.285,4.006,0.857,5.061C83.953,101.118,84.702,101.643,85.631,101.643z"/>
</g>
<circle fill="none" stroke="#4C4B4B" stroke-width="10" stroke-miterlimit="10" cx="64.995" cy="64.994" r="59.995"/>
</svg>
