<?xml version="1.0" encoding="utf-8"?>
<!-- Generator: Adobe Illustrator 22.1.0, SVG Export Plug-In . SVG Version: 6.00 Build 0)  -->
<svg version="1.1" id="Layer_1" xmlns="http://www.w3.org/2000/svg" xmlns:xlink="http://www.w3.org/1999/xlink" x="0px" y="0px"
	 viewBox="0 0 130 130" style="enable-background:new 0 0 130 130;" xml:space="preserve">
<style type="text/css">
	.st0{fill:#4C4B4B;stroke:#4C4B4B;stroke-width:2;stroke-miterlimit:10;}
	.st1{fill:none;stroke:#4C4B4B;stroke-width:2;stroke-miterlimit:10;}
	.st2{fill:#FFFFFF;stroke:#4C4B4B;stroke-miterlimit:10;}
	.st3{fill:none;stroke:#4C4B4B;stroke-width:3;stroke-miterlimit:10;}
	.st4{fill:none;stroke:#4C4B4B;stroke-width:10;stroke-miterlimit:10;}
</style>
<g>
	<g>
		<polyline class="st0" points="52.8,83.3 78.8,27.8 63.3,20.6 37.3,76.1 		"/>
		<path class="st1" d="M63.3,20.6l2.4-5.2c0.6-1.3,2.7-1.6,4.6-0.6l8.4,4c2,0.9,3.1,2.7,2.5,4l-2.5,5.2"/>
		<polygon class="st1" points="36.5,77.6 35.1,99.7 36,100.1 52.1,84.9 53.7,81.5 38.1,74.2 		"/>
		<polygon class="st0" points="35.5,93.8 35.1,99.7 36,100.1 40.3,96 		"/>
		<path class="st2" d="M37.7,76.8c0.5-1,1.7-1.5,2.6-1c1,0.5,1.4,1.6,0.9,2.7c0.5-1,1.7-1.5,2.6-1c1,0.5,1.4,1.6,0.9,2.7
			c0.5-1,1.7-1.5,2.6-1c1,0.5,1.4,1.7,0.9,2.7c0.5-1,1.7-1.5,2.6-1c1,0.5,1.4,1.6,0.9,2.7"/>
	</g>
	<line class="st3" x1="39" y1="104.5" x2="95.2" y2="104.5"/>
</g>
<path class="st4" d="M125,65c0,33.1-26.9,60-60,60C31.9,125,5,98.1,5,65C5,31.9,31.9,5,65,5C98.1,5,125,31.9,125,65z"/>
</svg>
