<?xml version="1.0" encoding="utf-8"?>
<!-- Generator: Adobe Illustrator 22.1.0, SVG Export Plug-In . SVG Version: 6.00 Build 0)  -->
<svg version="1.1" id="Calque_1" xmlns="http://www.w3.org/2000/svg" xmlns:xlink="http://www.w3.org/1999/xlink" x="0px" y="0px"
	 viewBox="0 0 238.3 238.3" style="enable-background:new 0 0 238.3 238.3;" xml:space="preserve">
<style type="text/css">
	.st0{fill:none;stroke:#534F4E;stroke-width:6;stroke-miterlimit:10;}
	.st1{fill:#2B307F;}
	.st2{fill:none;stroke:#2B307F;stroke-miterlimit:10;}
	.st3{fill:#C82027;}
</style>
<g>
	
		<image style="overflow:visible;enable-background:new    ;" width="299" height="300" xlink:href="8721EC1F.png"  transform="matrix(1 0 0 1 -30 -29.674)">
	</image>
</g>
<g>
	<g>
		<polyline class="st0" points="22.8,217.3 28,209.5 29.8,198.3 35.4,175.3 38.2,185.9 44.1,175.3 47.6,189.5 52.9,200.1 
			57.8,175.3 63,151.8 67.6,165.9 72.5,178.9 74.6,165.3 80.9,180.6 92.8,170 97.3,146.5 101.9,158.9 106.4,181.9 113.1,154.7 
			115.5,137.1 122.9,120.6 128.5,141.8 134.8,127.7 152.3,120.6 156.9,99.4 164.2,88.2 169.5,101.8 177.9,121.2 181.7,88.2 
			187,115.3 195.4,95.3 199.6,72.9 206.2,91.7 214.3,121.2 217.9,87 		"/>
	</g>
	<g>
		<line class="st0" x1="217.9" y1="217.3" x2="19.3" y2="217.3"/>
	</g>
	<g>
		<line class="st0" x1="21.3" y1="64" x2="21.3" y2="220"/>
	</g>
</g>
<g>
	<g>
		<g>
			<g>
				<g>
					<path class="st1" d="M177.4,178.3c0.1-0.1,0.6-1,1.2-2s0.6-2.7,0.1-3.7c-0.5-1.1-1.5-3-2.2-4.3s-2-3.4-2.8-4.7v-0.1
						c-0.8-1.3-2.3-3.4-3.2-4.7l-0.2-0.2c-0.9-1.3-2.4-3.4-3.2-4.7l-0.3-0.4c-0.9-1.3-2.4-3.4-3.3-4.6l-1.1-1.5
						c-0.9-1.3-2.5-3.3-3.4-4.5l-2.4-3.1c-1-1.2-2.5-3.2-3.5-4.4L151,133c-1-1.2-2.7-3.1-3.7-4.3l-1.8-1.9c-1.1-1.1-2.5-2.6-3.2-3.3
						s-2.1-2.1-3.2-3.2l-15.8-15.8c-1.1-1.1-2.9-2.9-4-4L98.7,79.9c-1.1-1.1-2.9-2.9-4-4L80.4,61.6c-1.1-1.1-2.9-2.9-4-4l-0.3-0.3
						c-1.1-1.1-2.9-2.9-4-4L67.8,49c-1.1-1.1-2.9-2.9-4.1-3.9L61,42.7c-1.2-1-3-2.7-4.2-3.6s-3-2.3-4.2-3.2c-1.2-0.8-3-2-3.9-2.5
						c-1-0.5-2.5-1.4-3.5-1.9c-1-0.5-2.6-1.4-3.7-1.9c-1-0.5-2.8-1.3-3.8-1.7c-1-0.4-2.9-1.1-4.2-1.5s-2.9-0.9-3.7-1.1
						s-1.9-0.5-2.6-0.7s-1.6-0.3-2-0.4s-1-0.1-1.2-0.1c-0.2,0.1-0.5,0.2-0.6,0.3s-0.2,0.3-0.3,0.6c-0.1,0.2,0,0.8,0.1,1.2
						s0.3,1.4,0.4,2s0.4,1.8,0.7,2.6c0.2,0.8,0.8,2.4,1.1,3.7c0.4,1.3,1.1,3.1,1.5,4.2s1.2,2.8,1.7,3.8s1.4,2.7,1.9,3.7
						s1.4,2.5,1.9,3.5c0.5,1,1.7,2.7,2.5,3.9s2.3,3.1,3.2,4.2c0.9,1.1,2.5,3,3.6,4.2l2.4,2.6c1,1.2,2.8,3,3.9,4.1l4.4,4.4
						c1.1,1.1,2.9,2.9,4,4l0.3,0.3c1.1,1.1,2.9,2.9,4,4L75,95.6c1.1,1.1,2.9,2.9,4,4l20.6,20.6c1.1,1.1,2.9,2.9,4,4l15.8,15.8
						c1.1,1.1,2.6,2.6,3.2,3.2s2.2,2.1,3.3,3.2l1.9,1.8c1.1,1.1,3.1,2.7,4.3,3.7l2.2,1.9c1.2,1,3.2,2.6,4.4,3.5l3.1,2.4
						c1.2,1,3.3,2.5,4.5,3.4l1.5,1.1c1.3,0.9,3.3,2.4,4.6,3.3l0.4,0.3c1.3,0.9,3.4,2.3,4.7,3.2l0.2,0.2c1.3,0.9,3.4,2.3,4.7,3.2h0.1
						c1.3,0.8,3.4,2.1,4.7,2.8s3.2,1.7,4.3,2.2s2.7,0.5,3.7-0.1C176.4,178.9,177.3,178.4,177.4,178.3z"/>
					<path class="st2" d="M177.4,178.3c0.1-0.1,0.6-1,1.2-2s0.6-2.7,0.1-3.7c-0.5-1.1-1.5-3-2.2-4.3s-2-3.4-2.8-4.7v-0.1
						c-0.8-1.3-2.3-3.4-3.2-4.7l-0.2-0.2c-0.9-1.3-2.4-3.4-3.2-4.7l-0.3-0.4c-0.9-1.3-2.4-3.4-3.3-4.6l-1.1-1.5
						c-0.9-1.3-2.5-3.3-3.4-4.5l-2.4-3.1c-1-1.2-2.5-3.2-3.5-4.4L151,133c-1-1.2-2.7-3.1-3.7-4.3l-1.8-1.9c-1.1-1.1-2.5-2.6-3.2-3.3
						s-2.1-2.1-3.2-3.2l-15.8-15.8c-1.1-1.1-2.9-2.9-4-4L98.7,79.9c-1.1-1.1-2.9-2.9-4-4L80.4,61.6c-1.1-1.1-2.9-2.9-4-4l-0.3-0.3
						c-1.1-1.1-2.9-2.9-4-4L67.8,49c-1.1-1.1-2.9-2.9-4.1-3.9L61,42.7c-1.2-1-3-2.7-4.2-3.6s-3-2.3-4.2-3.2c-1.2-0.8-3-2-3.9-2.5
						c-1-0.5-2.5-1.4-3.5-1.9c-1-0.5-2.6-1.4-3.7-1.9c-1-0.5-2.8-1.3-3.8-1.7c-1-0.4-2.9-1.1-4.2-1.5s-2.9-0.9-3.7-1.1
						s-1.9-0.5-2.6-0.7s-1.6-0.3-2-0.4s-1-0.1-1.2-0.1c-0.2,0.1-0.5,0.2-0.6,0.3s-0.2,0.3-0.3,0.6c-0.1,0.2,0,0.8,0.1,1.2
						s0.3,1.4,0.4,2s0.4,1.8,0.7,2.6c0.2,0.8,0.8,2.4,1.1,3.7c0.4,1.3,1.1,3.1,1.5,4.2s1.2,2.8,1.7,3.8s1.4,2.7,1.9,3.7
						s1.4,2.5,1.9,3.5c0.5,1,1.7,2.7,2.5,3.9s2.3,3.1,3.2,4.2c0.9,1.1,2.5,3,3.6,4.2l2.4,2.6c1,1.2,2.8,3,3.9,4.1l4.4,4.4
						c1.1,1.1,2.9,2.9,4,4l0.3,0.3c1.1,1.1,2.9,2.9,4,4L75,95.6c1.1,1.1,2.9,2.9,4,4l20.6,20.6c1.1,1.1,2.9,2.9,4,4l15.8,15.8
						c1.1,1.1,2.6,2.6,3.2,3.2s2.2,2.1,3.3,3.2l1.9,1.8c1.1,1.1,3.1,2.7,4.3,3.7l2.2,1.9c1.2,1,3.2,2.6,4.4,3.5l3.1,2.4
						c1.2,1,3.3,2.5,4.5,3.4l1.5,1.1c1.3,0.9,3.3,2.4,4.6,3.3l0.4,0.3c1.3,0.9,3.4,2.3,4.7,3.2l0.2,0.2c1.3,0.9,3.4,2.3,4.7,3.2h0.1
						c1.3,0.8,3.4,2.1,4.7,2.8s3.2,1.7,4.3,2.2s2.7,0.5,3.7-0.1C176.4,178.9,177.3,178.4,177.4,178.3z"/>
				</g>
				<g>
					<path class="st1" d="M77,97.6l-38.3,76.8c-0.7,1.4-1.5,3-1.8,3.6s-0.6,1.4-0.7,1.8c-0.1,0.4-0.2,0.9-0.2,1.2
						c0,0.2,0.1,0.6,0.1,0.9c0.1,0.3,0.4,0.8,0.7,1.2s0.9,1.1,1.3,1.5c0.4,0.4,1.1,1.1,1.7,1.7c0.5,0.5,1.4,1.4,1.9,1.9s1.4,0.5,2,0
						s1.8-1.9,2.8-3.2l51.8-66.2"/>
					<path class="st2" d="M77,97.6l-38.3,76.8c-0.7,1.4-1.5,3-1.8,3.6s-0.6,1.4-0.7,1.8c-0.1,0.4-0.2,0.9-0.2,1.2
						c0,0.2,0.1,0.6,0.1,0.9c0.1,0.3,0.4,0.8,0.7,1.2s0.9,1.1,1.3,1.5c0.4,0.4,1.1,1.1,1.7,1.7c0.5,0.5,1.4,1.4,1.9,1.9s1.4,0.5,2,0
						s1.8-1.9,2.8-3.2l51.8-66.2"/>
				</g>
				<g>
					<path class="st1" d="M87.9,132c0,0,0.7,0.9,1.6,2s1.6,2.1,1.7,2.3c0,0.1,0,0.3-0.1,0.4c-0.1,0.1-0.2,0.2-0.2,0.2
						s-0.1,0.1-0.2,0.2s-0.3,0.1-0.4,0.1s-1.1-0.8-2.3-1.7c-1.1-0.9-2-1.6-2-1.6"/>
					<path class="st2" d="M87.9,132c0,0,0.7,0.9,1.6,2s1.6,2.1,1.7,2.3c0,0.1,0,0.3-0.1,0.4c-0.1,0.1-0.2,0.2-0.2,0.2
						s-0.1,0.1-0.2,0.2s-0.3,0.1-0.4,0.1s-1.1-0.8-2.3-1.7c-1.1-0.9-2-1.6-2-1.6"/>
				</g>
				<g>
					<path class="st1" d="M75,148.4c0,0,0.7,0.9,1.6,2s1.6,2.1,1.7,2.3c0,0.1,0,0.3-0.1,0.4s-0.2,0.2-0.2,0.2s-0.1,0.1-0.2,0.2
						c-0.1,0.1-0.3,0.1-0.4,0.1s-1.1-0.8-2.3-1.7c-1.1-0.9-2-1.6-2-1.6"/>
					<path class="st2" d="M75,148.4c0,0,0.7,0.9,1.6,2s1.6,2.1,1.7,2.3c0,0.1,0,0.3-0.1,0.4s-0.2,0.2-0.2,0.2s-0.1,0.1-0.2,0.2
						c-0.1,0.1-0.3,0.1-0.4,0.1s-1.1-0.8-2.3-1.7c-1.1-0.9-2-1.6-2-1.6"/>
				</g>
				<g>
					<path class="st1" d="M62,164.6c0,0,0.7,0.9,1.6,2c0.9,1.1,1.6,2.1,1.7,2.3c0,0.1,0,0.3-0.1,0.4s-0.2,0.2-0.2,0.2
						s-0.1,0.1-0.2,0.2c-0.1,0.1-0.3,0.1-0.4,0.1s-1.1-0.8-2.3-1.7c-1.1-0.9-2-1.6-2-1.6"/>
					<path class="st2" d="M62,164.6c0,0,0.7,0.9,1.6,2c0.9,1.1,1.6,2.1,1.7,2.3c0,0.1,0,0.3-0.1,0.4s-0.2,0.2-0.2,0.2
						s-0.1,0.1-0.2,0.2c-0.1,0.1-0.3,0.1-0.4,0.1s-1.1-0.8-2.3-1.7c-1.1-0.9-2-1.6-2-1.6"/>
				</g>
				<g>
					<path class="st1" d="M69.2,115.2c-0.7,0.7-1.7,1.6-2.1,1.9c-0.5,0.3-1,0.7-1.1,0.8c-0.2,0.1-0.5,0.1-0.7,0.1
						c-0.2-0.1-0.8-0.4-1.3-0.7s-1.5-1.1-2.2-1.6c-0.7-0.6-2-1.7-2.9-2.5s-1.9-1.8-2.1-2s-1-1.1-1.7-1.8c-0.7-0.7-1.4-1.6-1.7-2
						s-0.6-0.9-0.7-1.1c-0.1-0.3-0.1-0.7-0.1-0.9c0-0.2,0.5-0.8,0.9-1.3s1.4-1.4,2.2-2.2c0.7-0.7,1.7-1.7,2.2-2.2s1.1-0.9,1.3-0.9
						s0.6,0,0.9,0.1c0.3,0.1,0.8,0.4,1.1,0.7c0.4,0.3,1.3,1,2,1.7s1.5,1.4,1.8,1.7c0.3,0.3,1.2,1.2,2,2.1s2,2.2,2.5,2.9
						c0.6,0.7,1.3,1.7,1.6,2.2s0.7,1.1,0.7,1.3c0.1,0.2,0,0.5-0.1,0.7s-0.5,0.7-0.8,1.1C70.8,113.5,69.9,114.5,69.2,115.2z"/>
					<path class="st2" d="M69.2,115.2c-0.7,0.7-1.7,1.6-2.1,1.9c-0.5,0.3-1,0.7-1.1,0.8c-0.2,0.1-0.5,0.1-0.7,0.1
						c-0.2-0.1-0.8-0.4-1.3-0.7s-1.5-1.1-2.2-1.6c-0.7-0.6-2-1.7-2.9-2.5s-1.9-1.8-2.1-2s-1-1.1-1.7-1.8c-0.7-0.7-1.4-1.6-1.7-2
						s-0.6-0.9-0.7-1.1c-0.1-0.3-0.1-0.7-0.1-0.9c0-0.2,0.5-0.8,0.9-1.3s1.4-1.4,2.2-2.2c0.7-0.7,1.7-1.7,2.2-2.2s1.1-0.9,1.3-0.9
						s0.6,0,0.9,0.1c0.3,0.1,0.8,0.4,1.1,0.7c0.4,0.3,1.3,1,2,1.7s1.5,1.4,1.8,1.7c0.3,0.3,1.2,1.2,2,2.1s2,2.2,2.5,2.9
						c0.6,0.7,1.3,1.7,1.6,2.2s0.7,1.1,0.7,1.3c0.1,0.2,0,0.5-0.1,0.7s-0.5,0.7-0.8,1.1C70.8,113.5,69.9,114.5,69.2,115.2z"/>
				</g>
				<g>
					<path class="st1" d="M59.4,134.4c-0.7,0.7-1.7,1.6-2.1,1.9c-0.5,0.3-1,0.7-1.1,0.8s-0.5,0.1-0.7,0.1c-0.2-0.1-0.8-0.4-1.3-0.7
						s-1.5-1.1-2.2-1.6c-0.7-0.6-2-1.7-2.9-2.5s-1.9-1.8-2.1-2c-0.3-0.3-1-1.1-1.7-1.8c-0.7-0.7-1.4-1.6-1.7-2s-0.6-0.9-0.7-1.1
						c-0.1-0.3-0.1-0.7-0.1-0.9s0.5-0.8,0.9-1.3s1.4-1.4,2.2-2.2c0.7-0.7,1.7-1.7,2.2-2.2s1.1-0.9,1.3-0.9s0.6,0,0.9,0.1
						c0.3,0.1,0.8,0.4,1.1,0.7c0.4,0.3,1.3,1,2,1.7s1.5,1.4,1.8,1.7c0.3,0.3,1.2,1.2,2,2.1s2,2.2,2.5,2.9c0.6,0.7,1.3,1.7,1.6,2.2
						s0.7,1.1,0.7,1.3c0.1,0.2,0,0.5-0.1,0.7s-0.5,0.7-0.8,1.1C61,132.8,60.1,133.7,59.4,134.4z"/>
					<path class="st2" d="M59.4,134.4c-0.7,0.7-1.7,1.6-2.1,1.9c-0.5,0.3-1,0.7-1.1,0.8s-0.5,0.1-0.7,0.1c-0.2-0.1-0.8-0.4-1.3-0.7
						s-1.5-1.1-2.2-1.6c-0.7-0.6-2-1.7-2.9-2.5s-1.9-1.8-2.1-2c-0.3-0.3-1-1.1-1.7-1.8c-0.7-0.7-1.4-1.6-1.7-2s-0.6-0.9-0.7-1.1
						c-0.1-0.3-0.1-0.7-0.1-0.9s0.5-0.8,0.9-1.3s1.4-1.4,2.2-2.2c0.7-0.7,1.7-1.7,2.2-2.2s1.1-0.9,1.3-0.9s0.6,0,0.9,0.1
						c0.3,0.1,0.8,0.4,1.1,0.7c0.4,0.3,1.3,1,2,1.7s1.5,1.4,1.8,1.7c0.3,0.3,1.2,1.2,2,2.1s2,2.2,2.5,2.9c0.6,0.7,1.3,1.7,1.6,2.2
						s0.7,1.1,0.7,1.3c0.1,0.2,0,0.5-0.1,0.7s-0.5,0.7-0.8,1.1C61,132.8,60.1,133.7,59.4,134.4z"/>
				</g>
				<g>
					<g>
						<path class="st1" d="M118,99.1l66.2-51.8c1.2-1,2.7-2.2,3.2-2.8s0.5-1.5,0-2s-1.4-1.4-1.9-1.9s-1.3-1.3-1.7-1.7
							s-1.1-1-1.5-1.3s-1-0.7-1.2-0.7c-0.3-0.1-0.6-0.1-0.9-0.1c-0.2,0-0.7,0.1-1.2,0.2c-0.4,0.1-1.2,0.4-1.8,0.7s-2.2,1.1-3.6,1.8
							L96.7,77.8"/>
						<path class="st2" d="M118,99.1l66.2-51.8c1.2-1,2.7-2.2,3.2-2.8s0.5-1.5,0-2s-1.4-1.4-1.9-1.9s-1.3-1.3-1.7-1.7
							s-1.1-1-1.5-1.3s-1-0.7-1.2-0.7c-0.3-0.1-0.6-0.1-0.9-0.1c-0.2,0-0.7,0.1-1.2,0.2c-0.4,0.1-1.2,0.4-1.8,0.7s-2.2,1.1-3.6,1.8
							L96.7,77.8"/>
					</g>
					<g>
						<path class="st1" d="M131.1,88.7c0,0,0.9,0.7,2,1.6s2.1,1.6,2.3,1.7c0.1,0,0.3,0,0.4-0.1s0.2-0.2,0.2-0.2s0.1-0.1,0.2-0.2
							s0.1-0.3,0.1-0.4s-0.8-1.1-1.7-2.3c-0.9-1.1-1.6-2-1.6-2"/>
						<path class="st2" d="M131.1,88.7c0,0,0.9,0.7,2,1.6s2.1,1.6,2.3,1.7c0.1,0,0.3,0,0.4-0.1s0.2-0.2,0.2-0.2s0.1-0.1,0.2-0.2
							s0.1-0.3,0.1-0.4s-0.8-1.1-1.7-2.3c-0.9-1.1-1.6-2-1.6-2"/>
					</g>
					<g>
						<path class="st1" d="M147.5,75.8c0,0,0.9,0.7,2,1.6s2.1,1.6,2.3,1.7c0.1,0,0.3,0,0.4-0.1c0.1-0.1,0.2-0.2,0.2-0.2
							s0.1-0.1,0.2-0.2c0.1-0.1,0.1-0.3,0.1-0.4s-0.8-1.1-1.7-2.3c-0.9-1.1-1.6-2-1.6-2"/>
						<path class="st2" d="M147.5,75.8c0,0,0.9,0.7,2,1.6s2.1,1.6,2.3,1.7c0.1,0,0.3,0,0.4-0.1c0.1-0.1,0.2-0.2,0.2-0.2
							s0.1-0.1,0.2-0.2c0.1-0.1,0.1-0.3,0.1-0.4s-0.8-1.1-1.7-2.3c-0.9-1.1-1.6-2-1.6-2"/>
					</g>
					<g>
						<path class="st1" d="M163.7,62.9c0,0,0.9,0.7,2,1.6c1.1,0.9,2.1,1.6,2.3,1.7c0.1,0,0.3,0,0.4-0.1c0.1-0.1,0.2-0.2,0.2-0.2
							s0.1-0.1,0.2-0.2c0.1-0.1,0.1-0.3,0.1-0.4s-0.8-1.1-1.7-2.3s-1.6-2-1.6-2"/>
						<path class="st2" d="M163.7,62.9c0,0,0.9,0.7,2,1.6c1.1,0.9,2.1,1.6,2.3,1.7c0.1,0,0.3,0,0.4-0.1c0.1-0.1,0.2-0.2,0.2-0.2
							s0.1-0.1,0.2-0.2c0.1-0.1,0.1-0.3,0.1-0.4s-0.8-1.1-1.7-2.3s-1.6-2-1.6-2"/>
					</g>
					<g>
						<path class="st1" d="M114.3,70.1c0.7-0.7,1.6-1.7,1.9-2.1s0.7-1,0.8-1.1c0.1-0.2,0.1-0.5,0.1-0.7s-0.4-0.8-0.7-1.3
							c-0.3-0.5-1.1-1.5-1.6-2.2s-1.7-2-2.5-2.9s-1.8-1.9-2-2.1s-1.1-1-1.8-1.7s-1.6-1.4-2-1.7s-0.9-0.6-1.1-0.7
							c-0.3-0.1-0.7-0.1-0.9-0.1s-0.8,0.5-1.3,0.9s-1.4,1.4-2.2,2.2c-0.7,0.7-1.7,1.7-2.2,2.2s-0.9,1.1-0.9,1.3s0,0.6,0.1,0.9
							s0.4,0.8,0.7,1.1c0.3,0.4,1,1.3,1.7,2c0.7,0.7,1.4,1.5,1.7,1.8s1.2,1.2,2.1,2s2.2,2,2.9,2.5c0.7,0.6,1.7,1.3,2.2,1.6
							c0.5,0.3,1.1,0.7,1.3,0.7c0.2,0.1,0.5,0,0.7-0.1s0.7-0.5,1.1-0.8C112.6,71.6,113.6,70.8,114.3,70.1z"/>
						<path class="st2" d="M114.3,70.1c0.7-0.7,1.6-1.7,1.9-2.1s0.7-1,0.8-1.1c0.1-0.2,0.1-0.5,0.1-0.7s-0.4-0.8-0.7-1.3
							c-0.3-0.5-1.1-1.5-1.6-2.2s-1.7-2-2.5-2.9s-1.8-1.9-2-2.1s-1.1-1-1.8-1.7s-1.6-1.4-2-1.7s-0.9-0.6-1.1-0.7
							c-0.3-0.1-0.7-0.1-0.9-0.1s-0.8,0.5-1.3,0.9s-1.4,1.4-2.2,2.2c-0.7,0.7-1.7,1.7-2.2,2.2s-0.9,1.1-0.9,1.3s0,0.6,0.1,0.9
							s0.4,0.8,0.7,1.1c0.3,0.4,1,1.3,1.7,2c0.7,0.7,1.4,1.5,1.7,1.8s1.2,1.2,2.1,2s2.2,2,2.9,2.5c0.7,0.6,1.7,1.3,2.2,1.6
							c0.5,0.3,1.1,0.7,1.3,0.7c0.2,0.1,0.5,0,0.7-0.1s0.7-0.5,1.1-0.8C112.6,71.6,113.6,70.8,114.3,70.1z"/>
					</g>
					<g>
						<path class="st1" d="M133.6,60.3c0.7-0.7,1.6-1.7,1.9-2.1s0.7-1,0.8-1.1s0.1-0.5,0.1-0.7c-0.1-0.2-0.4-0.8-0.7-1.3
							s-1.1-1.5-1.6-2.2c-0.6-0.7-1.7-2-2.5-2.9s-1.8-1.9-2-2.1s-1.1-1-1.8-1.7s-1.6-1.4-2-1.7s-0.9-0.6-1.1-0.7s-0.7-0.1-0.9-0.1
							c-0.2,0-0.8,0.5-1.3,0.9c-0.5,0.5-1.4,1.4-2.2,2.2c-0.7,0.7-1.7,1.7-2.2,2.2s-0.9,1.1-0.9,1.3s0,0.6,0.1,0.9
							c0.1,0.3,0.4,0.8,0.7,1.1s1,1.3,1.7,2s1.4,1.5,1.7,1.8s1.2,1.2,2.1,2s2.2,2,2.9,2.5s1.7,1.3,2.2,1.6s1.1,0.7,1.3,0.7
							c0.2,0.1,0.5,0,0.7-0.1s0.7-0.5,1.1-0.8S132.9,61,133.6,60.3z"/>
						<path class="st2" d="M133.6,60.3c0.7-0.7,1.6-1.7,1.9-2.1s0.7-1,0.8-1.1s0.1-0.5,0.1-0.7c-0.1-0.2-0.4-0.8-0.7-1.3
							s-1.1-1.5-1.6-2.2c-0.6-0.7-1.7-2-2.5-2.9s-1.8-1.9-2-2.1s-1.1-1-1.8-1.7s-1.6-1.4-2-1.7s-0.9-0.6-1.1-0.7s-0.7-0.1-0.9-0.1
							c-0.2,0-0.8,0.5-1.3,0.9c-0.5,0.5-1.4,1.4-2.2,2.2c-0.7,0.7-1.7,1.7-2.2,2.2s-0.9,1.1-0.9,1.3s0,0.6,0.1,0.9
							c0.1,0.3,0.4,0.8,0.7,1.1s1,1.3,1.7,2s1.4,1.5,1.7,1.8s1.2,1.2,2.1,2s2.2,2,2.9,2.5s1.7,1.3,2.2,1.6s1.1,0.7,1.3,0.7
							c0.2,0.1,0.5,0,0.7-0.1s0.7-0.5,1.1-0.8S132.9,61,133.6,60.3z"/>
					</g>
				</g>
				<g>
					<path class="st1" d="M197.9,198.9c-0.1,0.1-0.5,0.2-0.9,0.1s-1.1-0.5-1.8-0.9c-0.6-0.4-2-1.2-3.1-1.9s-2.9-2-4.1-3.1
						c-1.2-1-3-2.7-4.1-3.8l-4.2-4.2c-1.1-1.1-2.9-2.9-4-4l-10.5-10.5c-1.1-1.1-2.9-2.9-4-4l-6.3-6.3c-1.1-1.1-2.8-3-3.8-4.2
						l-2.8-3.3c-1-1.2-2.5-3-3.2-4.1s-1.5-2.3-1.6-2.7s0-1,0.2-1.2s0.8-0.3,1.2-0.2s1.7,0.8,2.7,1.6c1.1,0.8,2.9,2.2,4.1,3.2
						l3.3,2.8c1.2,1,3.1,2.7,4.2,3.8l6.3,6.3c1.1,1.1,2.9,2.9,4,4l10.5,10.5c1.1,1.1,2.9,2.9,4,4l4.2,4.2c1.1,1.1,2.8,3,3.8,4.1
						s2.4,3,3.1,4.1c0.7,1.1,1.5,2.5,1.9,3.1s0.8,1.4,0.9,1.8S198.1,198.8,197.9,198.9z"/>
					<path class="st2" d="M197.9,198.9c-0.1,0.1-0.5,0.2-0.9,0.1s-1.1-0.5-1.8-0.9c-0.6-0.4-2-1.2-3.1-1.9s-2.9-2-4.1-3.1
						c-1.2-1-3-2.7-4.1-3.8l-4.2-4.2c-1.1-1.1-2.9-2.9-4-4l-10.5-10.5c-1.1-1.1-2.9-2.9-4-4l-6.3-6.3c-1.1-1.1-2.8-3-3.8-4.2
						l-2.8-3.3c-1-1.2-2.5-3-3.2-4.1s-1.5-2.3-1.6-2.7s0-1,0.2-1.2s0.8-0.3,1.2-0.2s1.7,0.8,2.7,1.6c1.1,0.8,2.9,2.2,4.1,3.2
						l3.3,2.8c1.2,1,3.1,2.7,4.2,3.8l6.3,6.3c1.1,1.1,2.9,2.9,4,4l10.5,10.5c1.1,1.1,2.9,2.9,4,4l4.2,4.2c1.1,1.1,2.8,3,3.8,4.1
						s2.4,3,3.1,4.1c0.7,1.1,1.5,2.5,1.9,3.1s0.8,1.4,0.9,1.8S198.1,198.8,197.9,198.9z"/>
				</g>
				<g>
					<path class="st1" d="M171,176.4l-14.7,36.2c-0.6,1.4-1.2,3-1.3,3.6c-0.1,0.5-0.2,1.2-0.2,1.5s0.1,0.8,0.1,1
						c0.1,0.2,0.3,0.6,0.4,0.8s0.6,0.7,0.9,1c0.3,0.3,1.5,1.5,2.6,2.6l3.8,3.8c1.1,1.1,2.8,1,3.8-0.2l25.5-30.5"/>
					<path class="st2" d="M171,176.4l-14.7,36.2c-0.6,1.4-1.2,3-1.3,3.6c-0.1,0.5-0.2,1.2-0.2,1.5s0.1,0.8,0.1,1
						c0.1,0.2,0.3,0.6,0.4,0.8s0.6,0.7,0.9,1c0.3,0.3,1.5,1.5,2.6,2.6l3.8,3.8c1.1,1.1,2.8,1,3.8-0.2l25.5-30.5"/>
				</g>
			</g>
			<g>
				<path class="st1" d="M175.3,172l36.2-14.7c1.4-0.6,3-1.2,3.6-1.3s1.2-0.2,1.5-0.2s0.8,0.1,1,0.1c0.2,0.1,0.6,0.3,0.8,0.4
					c0.2,0.2,0.7,0.6,1,0.9s1.5,1.5,2.6,2.6l3.8,3.8c1.1,1.1,1,2.8-0.2,3.8L195,192.9"/>
				<path class="st2" d="M175.3,172l36.2-14.7c1.4-0.6,3-1.2,3.6-1.3s1.2-0.2,1.5-0.2s0.8,0.1,1,0.1c0.2,0.1,0.6,0.3,0.8,0.4
					c0.2,0.2,0.7,0.6,1,0.9s1.5,1.5,2.6,2.6l3.8,3.8c1.1,1.1,1,2.8-0.2,3.8L195,192.9"/>
			</g>
		</g>
	</g>
</g>
<g>
	
		<image style="overflow:visible;opacity:0.75;" width="55" height="159" xlink:href="104A28E6.png"  transform="matrix(1 0 0 1 160.7062 57.2575)">
	</image>
	<g>
		<g>
			<path class="st3" d="M166.4,186.1c0-11,7.6-18.8,18.6-18.8c11,0,18.2,7.9,18.4,18.8c0,10.7-7.2,18.8-18.4,18.8
				C173.8,204.9,166.4,196.8,166.4,186.1z M173.2,156.9l-4.8-93.6h32.9l-4.5,93.6H173.2z"/>
		</g>
	</g>
</g>
</svg>
