<?xml version="1.0" encoding="utf-8"?>
<!-- Generator: Adobe Illustrator 22.1.0, SVG Export Plug-In . SVG Version: 6.00 Build 0)  -->
<svg version="1.1" id="Layer_1" xmlns="http://www.w3.org/2000/svg" xmlns:xlink="http://www.w3.org/1999/xlink" x="0px" y="0px"
	 viewBox="0 0 130 130" style="enable-background:new 0 0 130 130;" xml:space="preserve">
<style type="text/css">
	.st0{fill:none;stroke:#4D4C4D;stroke-width:10;stroke-miterlimit:10;}
	.st1{fill:none;stroke:#4D4C4D;stroke-width:7;stroke-miterlimit:10;}
	.st2{fill:none;stroke:#4D4C4D;stroke-width:2;stroke-miterlimit:10;}
	.st3{fill:#4D4C4D;}
</style>
<g>
	<ellipse transform="matrix(0.1592 -0.9872 0.9872 0.1592 -9.5189 118.8136)" class="st0" cx="65" cy="65" rx="60" ry="60"/>
	<g>
		<path class="st1" d="M61.9,100.6H39.8c-1.1,0-1.9-0.6-1.9-1.3V30.6c0-0.7,0.9-1.3,1.9-1.3h26.3h1.6h23.1c0.7,0,1.3,0.9,1.3,1.9
			v26.3v2.5v5.5"/>
		<line class="st2" x1="48.7" y1="43.7" x2="81" y2="43.7"/>
		<line class="st2" x1="48.7" y1="52.7" x2="81" y2="52.7"/>
		<line class="st2" x1="48.7" y1="61.8" x2="81" y2="61.8"/>
		<line class="st2" x1="48.7" y1="70.8" x2="81" y2="70.8"/>
		<line class="st2" x1="48.7" y1="79.8" x2="61.6" y2="79.8"/>
		<line class="st2" x1="48.7" y1="88.9" x2="61.6" y2="88.9"/>
	</g>
</g>
<g>
	<g>
		<path class="st3" d="M66.7,95.4c-1.6,0-2.8-1.3-2.8-2.8v-9.1c0-1.6,1.3-2.8,2.8-2.8l18.9,0c1.6,0,2.8,1.3,2.8,2.8l0,9.1
			c0,1.6-1.3,2.8-2.8,2.8L66.7,95.4z"/>
	</g>
	<polygon class="st3" points="82.6,109 82.6,66.9 107,88 	"/>
</g>
</svg>
