<?xml version="1.0" encoding="utf-8"?>
<!-- Generator: Adobe Illustrator 22.1.0, SVG Export Plug-In . SVG Version: 6.00 Build 0)  -->
<svg version="1.1" id="Layer_1" xmlns="http://www.w3.org/2000/svg" xmlns:xlink="http://www.w3.org/1999/xlink" x="0px" y="0px"
	 viewBox="0 0 130 130" style="enable-background:new 0 0 130 130;" xml:space="preserve">
<style type="text/css">
	.st0{fill:none;stroke:#4D4C4D;stroke-width:10;stroke-miterlimit:10;}
	.st1{fill:#4D4C4D;}
	.st2{fill:none;stroke:#4D4C4D;stroke-width:3;stroke-miterlimit:10;}
</style>
<path class="st0" d="M125,65c0,33.1-26.9,60-60,60C31.9,125,5,98.1,5,65C5,31.9,31.9,5,65,5C98.1,5,125,31.9,125,65z"/>
<path class="st1" d="M75.1,50l-17.8-2.7l-9.5,9.5l0.5,3.3l1.2,7.9l1,6.6l35.6,35.6l24.6-24.6L75.1,50z M58.7,62c-2.8,0-5-2.2-5-5
	c0-2.8,2.2-5,5-5c2.8,0,5,2.2,5,5C63.7,59.7,61.4,62,58.7,62z M69,82.4l-6.3-17.5l2.1-2.1l17.5,6.4l-2.6,2.6l-13-5.1l0,0.1l5,13
	L69,82.4z M76.9,90.3l2.6-2.6L92.7,93l0-0.1l-5.2-13.2l2.6-2.6l6.4,17.4l-2.3,2.3L76.9,90.3z"/>
<path class="st2" d="M65.1,46c1.1-5.8-0.5-12-4.7-16.7c-7.3-8.1-19.7-8.8-27.8-1.5c-4.3,3.9-6.5,9.2-6.6,14.6l0,0
	c0,10.9,8.8,19.7,19.7,19.7c5.8,0,11-2.5,14.6-6.5"/>
</svg>
