<?xml version="1.0" encoding="iso-8859-1"?>
<!-- Generator: Adobe Illustrator 16.0.0, SVG Export Plug-In . SVG Version: 6.00 Build 0)  -->
<!DOCTYPE svg PUBLIC "-//W3C//DTD SVG 1.1//EN" "http://www.w3.org/Graphics/SVG/1.1/DTD/svg11.dtd" [
	<!ENTITY ns_flows "http://ns.adobe.com/Flows/1.0/">
	<!ENTITY ns_extend "http://ns.adobe.com/Extensibility/1.0/">
	<!ENTITY ns_ai "http://ns.adobe.com/AdobeIllustrator/10.0/">
	<!ENTITY ns_graphs "http://ns.adobe.com/Graphs/1.0/">
]>
<svg version="1.1" id="Calque_1" xmlns:x="&ns_extend;" xmlns:i="&ns_ai;" xmlns:graph="&ns_graphs;"
	 xmlns="http://www.w3.org/2000/svg" xmlns:xlink="http://www.w3.org/1999/xlink" xmlns:a="http://ns.adobe.com/AdobeSVGViewerExtensions/3.0/"
	 x="0px" y="0px" width="129.99px" height="129.991px" viewBox="0 0 129.99 129.991" enable-background="new 0 0 129.99 129.991"
	 xml:space="preserve">
<g>
	<path fill="#4C4B4B" d="M46.207,93.093c0,0.668-0.842,1.211-1.88,1.211H24.121c-1.038,0-1.88-0.543-1.88-1.211V66.911
		c0-0.668,0.842-1.209,1.88-1.209h20.205c1.039,0,1.88,0.542,1.88,1.209V93.093z"/>
	<rect x="32.626" y="68.737" fill="#FFFFFF" width="3.195" height="22.529"/>
	<path fill="#4C4B4B" d="M107.718,93.093c0,0.668-0.842,1.211-1.881,1.211H85.633c-1.038,0-1.88-0.543-1.88-1.211V66.911
		c0-0.668,0.842-1.209,1.88-1.209h20.204c1.039,0,1.881,0.542,1.881,1.209V93.093z"/>
	<rect x="94.138" y="68.737" fill="#FFFFFF" width="3.195" height="22.529"/>
	<g>
		<g>
			<path fill="#4C4B4B" d="M48.79,49.604c2.643-6.937,7.1-12.237,13.105-14.729c13.081-5.424,29.186,4.263,38.665,22.119
				l0.841-1.151c-0.196-0.594-0.401-1.186-0.618-1.778c-9.097-24.921-32.539-38.458-52.361-30.237
				c-5.083,2.108-9.434,5.442-12.941,9.654L48.79,49.604z"/>
		</g>
		<polygon fill="#4C4B4B" points="56.056,49.556 29.68,58.844 28.704,58.042 30.441,28.489 		"/>
	</g>
</g>
<circle fill="none" stroke="#4C4B4B" stroke-width="10" stroke-miterlimit="10" cx="64.995" cy="64.994" r="59.995"/>
</svg>
