<?xml version="1.0" encoding="utf-8"?>
<!-- Generator: Adobe Illustrator 16.0.0, SVG Export Plug-In . SVG Version: 6.00 Build 0)  -->
<!DOCTYPE svg PUBLIC "-//W3C//DTD SVG 1.1//EN" "http://www.w3.org/Graphics/SVG/1.1/DTD/svg11.dtd">
<svg version="1.1" id="Calque_1" xmlns="http://www.w3.org/2000/svg" xmlns:xlink="http://www.w3.org/1999/xlink" x="0px" y="0px"
	 width="129.99px" height="129.99px" viewBox="0 0 129.99 129.99" enable-background="new 0 0 129.99 129.99" xml:space="preserve">
<circle fill="none" stroke="#4C4B4B" stroke-width="10" stroke-miterlimit="10" cx="64.995" cy="64.995" r="59.995"/>
<path fill="none" stroke="#4C4B4B" stroke-width="7" stroke-miterlimit="10" d="M92.12,72.285V99.35c0,0.701-0.872,1.27-1.947,1.27
	H39.818c-1.076,0-1.948-0.568-1.948-1.27V30.64c0-0.701,0.872-1.271,1.948-1.271h13.519"/>
<line fill="none" stroke="#4C4B4B" stroke-width="2" stroke-miterlimit="10" x1="48.704" y1="43.704" x2="53.337" y2="43.704"/>
<line fill="none" stroke="#4C4B4B" stroke-width="2" stroke-miterlimit="10" x1="48.704" y1="52.737" x2="53.337" y2="52.737"/>
<line fill="none" stroke="#4C4B4B" stroke-width="2" stroke-miterlimit="10" x1="48.704" y1="61.77" x2="53.337" y2="61.77"/>
<line fill="none" stroke="#4C4B4B" stroke-width="2" stroke-miterlimit="10" x1="48.704" y1="70.803" x2="53.337" y2="70.803"/>
<line fill="none" stroke="#4C4B4B" stroke-width="2" stroke-miterlimit="10" x1="48.704" y1="79.836" x2="81.037" y2="79.836"/>
<line fill="none" stroke="#4C4B4B" stroke-width="2" stroke-miterlimit="10" x1="48.704" y1="88.869" x2="81.037" y2="88.869"/>
<path fill="#4C4B4B" d="M83.178,46.406l14.659,22.151H84.154l-7.41-13.682l-7.492,13.682H55.57l14.658-22.151L55.896,24.581h13.682
	l7.167,13.276l7.085-13.276H97.51L83.178,46.406z"/>
</svg>
