<?xml version="1.0" encoding="utf-8"?>
<!-- Generator: Adobe Illustrator 22.1.0, SVG Export Plug-In . SVG Version: 6.00 Build 0)  -->
<svg version="1.1" id="Layer_1" xmlns="http://www.w3.org/2000/svg" xmlns:xlink="http://www.w3.org/1999/xlink" x="0px" y="0px"
	 viewBox="0 0 130 130" style="enable-background:new 0 0 130 130;" xml:space="preserve">
<style type="text/css">
	.st0{fill:none;stroke:#544F4E;stroke-width:10;stroke-miterlimit:10;}
	.st1{fill:#544F4E;}
	.st2{fill:none;stroke:#544F4E;stroke-width:7;stroke-miterlimit:10;}
</style>
<path class="st0" d="M125,65c0,33.1-26.9,60-60,60S5,98.1,5,65C5,31.9,31.9,5,65,5S125,31.9,125,65z"/>
<path class="st1" d="M44.3,47.8h2.4v-8.5h-1.9v-1c0.5-0.1,0.9-0.2,1.3-0.4c0.4-0.1,0.7-0.3,1-0.5h1v10.3h2.2V49h-6V47.8z"/>
<path class="st1" d="M47.2,71c-1.1,0-1.9-0.5-2.5-1.6c-0.6-1-0.9-2.5-0.9-4.5c0-1.9,0.3-3.4,0.9-4.4c0.6-1,1.4-1.5,2.5-1.5
	c1.1,0,1.9,0.5,2.5,1.5c0.6,1,0.9,2.5,0.9,4.4c0,1.9-0.3,3.4-0.9,4.5C49.1,70.5,48.2,71,47.2,71z M47.2,69.8c0.3,0,0.6-0.1,0.8-0.3
	c0.2-0.2,0.5-0.5,0.6-0.9c0.2-0.4,0.3-0.9,0.4-1.5c0.1-0.6,0.1-1.3,0.1-2.2c0-0.8-0.1-1.6-0.1-2.2c-0.1-0.6-0.2-1.1-0.4-1.5
	c-0.2-0.4-0.4-0.7-0.6-0.8c-0.3-0.2-0.5-0.3-0.8-0.3c-0.3,0-0.6,0.1-0.8,0.3c-0.3,0.2-0.5,0.5-0.7,0.8c-0.2,0.4-0.3,0.9-0.4,1.5
	c-0.1,0.6-0.1,1.3-0.1,2.2c0,1.7,0.2,2.9,0.6,3.7C46.1,69.4,46.6,69.8,47.2,69.8z"/>
<path class="st1" d="M55.9,69.5h2.4V61h-1.9v-1c0.5-0.1,0.9-0.2,1.3-0.4c0.4-0.1,0.7-0.3,1-0.5h1v10.3h2.2v1.2h-6V69.5z"/>
<path class="st1" d="M55.9,47.8h2.4v-8.5h-1.9v-1c0.5-0.1,0.9-0.2,1.3-0.4c0.4-0.1,0.7-0.3,1-0.5h1v10.3h2.2V49h-6V47.8z"/>
<path class="st1" d="M44.3,91.3h2.4v-8.5h-1.9v-1c0.5-0.1,0.9-0.2,1.3-0.4c0.4-0.1,0.7-0.3,1-0.5h1v10.3h2.2v1.2h-6V91.3z"/>
<path class="st1" d="M58.9,93c-1.1,0-1.9-0.5-2.5-1.6c-0.6-1-0.9-2.5-0.9-4.5c0-1.9,0.3-3.4,0.9-4.4c0.6-1,1.4-1.5,2.5-1.5
	c1.1,0,1.9,0.5,2.5,1.5c0.6,1,0.9,2.5,0.9,4.4c0,1.9-0.3,3.4-0.9,4.5C60.8,92.5,60,93,58.9,93z M58.9,91.8c0.3,0,0.6-0.1,0.8-0.3
	c0.3-0.2,0.5-0.5,0.6-0.9c0.2-0.4,0.3-0.9,0.4-1.5c0.1-0.6,0.1-1.3,0.1-2.2c0-0.8-0.1-1.6-0.1-2.2c-0.1-0.6-0.2-1.1-0.4-1.5
	c-0.2-0.4-0.4-0.7-0.6-0.8c-0.2-0.2-0.5-0.3-0.8-0.3c-0.3,0-0.6,0.1-0.8,0.3c-0.3,0.2-0.5,0.5-0.7,0.8c-0.2,0.4-0.3,0.9-0.4,1.5
	c-0.1,0.6-0.1,1.3-0.1,2.2c0,1.7,0.2,2.9,0.6,3.7C57.8,91.4,58.3,91.8,58.9,91.8z"/>
<path class="st1" d="M70.5,71c-1.1,0-1.9-0.5-2.5-1.6c-0.6-1-0.9-2.5-0.9-4.5c0-1.9,0.3-3.4,0.9-4.4c0.6-1,1.4-1.5,2.5-1.5
	c1.1,0,1.9,0.5,2.5,1.5c0.6,1,0.9,2.5,0.9,4.4c0,1.9-0.3,3.4-0.9,4.5C72.4,70.5,71.6,71,70.5,71z M70.5,69.8c0.3,0,0.6-0.1,0.8-0.3
	c0.2-0.2,0.5-0.5,0.6-0.9c0.2-0.4,0.3-0.9,0.4-1.5c0.1-0.6,0.1-1.3,0.1-2.2c0-0.8-0.1-1.6-0.1-2.2c-0.1-0.6-0.2-1.1-0.4-1.5
	c-0.2-0.4-0.4-0.7-0.6-0.8c-0.2-0.2-0.5-0.3-0.8-0.3c-0.3,0-0.6,0.1-0.8,0.3c-0.3,0.2-0.5,0.5-0.7,0.8c-0.2,0.4-0.3,0.9-0.4,1.5
	c-0.1,0.6-0.1,1.3-0.1,2.2c0,1.7,0.2,2.9,0.6,3.7C69.4,69.4,69.9,69.8,70.5,69.8z"/>
<path class="st1" d="M70.5,49.2c-1.1,0-1.9-0.5-2.5-1.6c-0.6-1-0.9-2.5-0.9-4.5c0-1.9,0.3-3.4,0.9-4.4c0.6-1,1.4-1.5,2.5-1.5
	c1.1,0,1.9,0.5,2.5,1.5c0.6,1,0.9,2.5,0.9,4.4c0,1.9-0.3,3.4-0.9,4.5C72.4,48.7,71.6,49.2,70.5,49.2z M70.5,48
	c0.3,0,0.6-0.1,0.8-0.3c0.2-0.2,0.5-0.5,0.6-0.9c0.2-0.4,0.3-0.9,0.4-1.5c0.1-0.6,0.1-1.3,0.1-2.2c0-0.8-0.1-1.6-0.1-2.2
	c-0.1-0.6-0.2-1.1-0.4-1.5c-0.2-0.4-0.4-0.7-0.6-0.8c-0.2-0.2-0.5-0.3-0.8-0.3c-0.3,0-0.6,0.1-0.8,0.3c-0.3,0.2-0.5,0.5-0.7,0.8
	c-0.2,0.4-0.3,0.9-0.4,1.5c-0.1,0.6-0.1,1.3-0.1,2.2c0,1.7,0.2,2.9,0.6,3.7C69.4,47.7,69.9,48,70.5,48z"/>
<path class="st1" d="M79.1,47.8h2.4v-8.5h-1.9v-1c0.5-0.1,0.9-0.2,1.3-0.4c0.4-0.1,0.7-0.3,1-0.5h1v10.3h2.2V49h-6V47.8z"/>
<path class="st2" d="M75.5,100.6H39.8c-1.1,0-1.9-0.6-1.9-1.3V55V30.6c0-0.7,0.9-1.3,1.9-1.3h13.5h23.3h13.5c1.1,0,1.9,0.6,1.9,1.3
	V55v3.1"/>
<g>
	<g>
		<path class="st1" d="M98.7,96.7c0,3.1-1.8,5.7-4,5.7c-2.2,0-4-2.6-4-5.7V68.4c0-3.1,1.8-5.7,4-5.7c2.2,0,4,2.6,4,5.7V96.7z"/>
	</g>
	<g>
		<path class="st1" d="M80.5,86.5c-3.1,0-5.7-1.8-5.7-4c0-2.2,2.6-4,5.7-4h28.4c3.1,0,5.7,1.8,5.7,4c0,2.2-2.6,4-5.7,4H80.5z"/>
	</g>
</g>
</svg>
