<?xml version="1.0" encoding="iso-8859-1"?>
<!-- Generator: Adobe Illustrator 16.0.0, SVG Export Plug-In . SVG Version: 6.00 Build 0)  -->
<!DOCTYPE svg PUBLIC "-//W3C//DTD SVG 1.1//EN" "http://www.w3.org/Graphics/SVG/1.1/DTD/svg11.dtd" [
	<!ENTITY ns_flows "http://ns.adobe.com/Flows/1.0/">
	<!ENTITY ns_extend "http://ns.adobe.com/Extensibility/1.0/">
	<!ENTITY ns_ai "http://ns.adobe.com/AdobeIllustrator/10.0/">
	<!ENTITY ns_graphs "http://ns.adobe.com/Graphs/1.0/">
]>
<svg version="1.1" id="Calque_1" xmlns:x="&ns_extend;" xmlns:i="&ns_ai;" xmlns:graph="&ns_graphs;"
	 xmlns="http://www.w3.org/2000/svg" xmlns:xlink="http://www.w3.org/1999/xlink" xmlns:a="http://ns.adobe.com/AdobeSVGViewerExtensions/3.0/"
	 x="0px" y="0px" width="129.99px" height="129.991px" viewBox="0 0 129.99 129.991" enable-background="new 0 0 129.99 129.991"
	 xml:space="preserve">
<g>
	<path fill="none" stroke="#4C4B4B" stroke-width="10" stroke-miterlimit="10" d="M55.154,95.714
		c-12.697-4.063-21.891-15.961-21.891-30.006c0-17.396,14.102-31.498,31.498-31.498c17.396,0,31.498,14.102,31.498,31.498"/>
	<polygon fill="#4C4B4B" points="61.375,30.775 56.124,30.775 60.019,18.583 63.406,18.583 66.962,18.583 70.349,18.583 
		74.243,30.775 68.993,30.775 	"/>
	<g>
		<polygon fill="#4C4B4B" points="82.579,35.207 78.337,32.111 88.673,24.561 91.409,26.558 94.28,28.655 97.017,30.652 
			92.972,42.796 88.731,39.7 		"/>
		<polygon fill="#4C4B4B" points="41.636,91.28 37.396,88.185 33.352,100.327 36.087,102.325 38.959,104.423 41.694,106.421 
			52.03,98.868 47.79,95.772 		"/>
	</g>
	<g>
		<polygon fill="#4C4B4B" points="96.919,51.125 95.259,46.144 108.058,45.986 109.128,49.2 110.251,52.574 111.321,55.787 
			100.983,63.335 99.325,58.353 		"/>
		<polygon fill="#4C4B4B" points="31.044,73.061 29.385,68.079 19.048,75.626 20.117,78.841 21.241,82.214 22.311,85.429 
			35.111,85.271 33.451,80.29 		"/>
	</g>
	<polygon fill="#4C4B4B" points="33.469,51.256 35.134,46.276 22.335,46.103 21.26,49.315 20.133,52.688 19.058,55.9 29.388,63.46 
		31.052,58.48 	"/>
	<polygon fill="#4C4B4B" points="47.857,35.557 52.105,32.47 41.786,24.896 39.045,26.887 36.169,28.979 33.429,30.969 
		37.448,43.122 41.694,40.035 	"/>
</g>
<circle fill="none" stroke="#4C4B4B" stroke-width="10" stroke-miterlimit="10" cx="64.995" cy="64.994" r="59.995"/>
<g>
	<g>
		<path fill="#4C4B4B" d="M76.11,111.159c0.716,0,1.914,0,2.662,0s2.079,0,2.958,0s2.29-0.141,3.136-0.313
			c0.846-0.17,2.284-0.619,3.195-0.996c0.911-0.375,2.216-1.16,2.898-1.74c0.684-0.582,1.482-1.729,1.775-2.551
			s0.532-2.613,0.532-3.982s-0.213-3.748-0.473-5.289c-0.261-1.541-0.739-3.752-1.065-4.916c-0.325-1.162-0.885-2.926-1.242-3.92
			c-0.357-0.992-1.131-2.672-1.716-3.732c-0.586-1.061-1.571-2.518-2.189-3.236s-1.603-1.698-2.188-2.178
			c-0.586-0.479-1.385-0.676-1.775-0.436s-1.109,0.771-1.598,1.182c-0.488,0.412-1.5,0.748-2.248,0.748s-1.946,0-2.662,0
			c-0.717,0-1.914,0-2.662,0c-0.749,0-1.761-0.336-2.249-0.748c-0.487-0.41-1.207-0.941-1.598-1.182
			c-0.39-0.24-1.188-0.043-1.774,0.436c-0.586,0.479-1.571,1.459-2.189,2.178s-1.603,2.176-2.189,3.236s-1.358,2.74-1.716,3.732
			c-0.358,0.994-0.917,2.758-1.242,3.92c-0.326,1.164-0.805,3.375-1.065,4.916s-0.474,3.92-0.474,5.289s0.24,3.16,0.532,3.982
			c0.293,0.822,1.092,1.969,1.775,2.551c0.683,0.58,1.988,1.365,2.899,1.74c0.911,0.377,2.349,0.826,3.195,0.996
			c0.846,0.172,2.257,0.313,3.136,0.313s2.21,0,2.959,0C74.196,111.159,75.394,111.159,76.11,111.159z"/>
		<path fill="none" stroke="#4C4B4B" stroke-miterlimit="10" d="M76.11,111.159c0.716,0,1.914,0,2.662,0s2.079,0,2.958,0
			s2.29-0.141,3.136-0.313c0.846-0.17,2.284-0.619,3.195-0.996c0.911-0.375,2.216-1.16,2.898-1.74
			c0.684-0.582,1.482-1.729,1.775-2.551s0.532-2.613,0.532-3.982s-0.213-3.748-0.473-5.289c-0.261-1.541-0.739-3.752-1.065-4.916
			c-0.325-1.162-0.885-2.926-1.242-3.92c-0.357-0.992-1.131-2.672-1.716-3.732c-0.586-1.061-1.571-2.518-2.189-3.236
			s-1.603-1.698-2.188-2.178c-0.586-0.479-1.385-0.676-1.775-0.436s-1.109,0.771-1.598,1.182c-0.488,0.412-1.5,0.748-2.248,0.748
			s-1.946,0-2.662,0c-0.717,0-1.914,0-2.662,0c-0.749,0-1.761-0.336-2.249-0.748c-0.487-0.41-1.207-0.941-1.598-1.182
			c-0.39-0.24-1.188-0.043-1.774,0.436c-0.586,0.479-1.571,1.459-2.189,2.178s-1.603,2.176-2.189,3.236s-1.358,2.74-1.716,3.732
			c-0.358,0.994-0.917,2.758-1.242,3.92c-0.326,1.164-0.805,3.375-1.065,4.916s-0.474,3.92-0.474,5.289s0.24,3.16,0.532,3.982
			c0.293,0.822,1.092,1.969,1.775,2.551c0.683,0.58,1.988,1.365,2.899,1.74c0.911,0.377,2.349,0.826,3.195,0.996
			c0.846,0.172,2.257,0.313,3.136,0.313s2.21,0,2.959,0C74.196,111.159,75.394,111.159,76.11,111.159z"/>
	</g>
	<circle fill="#4C4B4B" stroke="#4C4B4B" stroke-miterlimit="10" cx="76.11" cy="66.075" r="10.413"/>
</g>
</svg>
