<?xml version="1.0" encoding="utf-8"?>
<!-- Generator: Adobe Illustrator 16.0.0, SVG Export Plug-In . SVG Version: 6.00 Build 0)  -->
<!DOCTYPE svg PUBLIC "-//W3C//DTD SVG 1.1//EN" "http://www.w3.org/Graphics/SVG/1.1/DTD/svg11.dtd">
<svg version="1.1" id="Calque_1" xmlns="http://www.w3.org/2000/svg" xmlns:xlink="http://www.w3.org/1999/xlink" x="0px" y="0px"
	 width="129.99px" height="129.99px" viewBox="0 0 129.99 129.99" enable-background="new 0 0 129.99 129.99" xml:space="preserve">
<circle fill="none" stroke="#4C4B4B" stroke-width="10" stroke-miterlimit="10" cx="64.995" cy="64.995" r="59.995"/>
<g>
	<circle fill="none" stroke="#4C4B4B" stroke-width="9" stroke-miterlimit="10" cx="65.075" cy="65.119" r="28.495"/>
	<circle fill="none" stroke="#4C4B4B" stroke-width="7" stroke-miterlimit="10" cx="65.075" cy="65.12" r="15.501"/>
	<g>
		<polygon fill="#4C4B4B" points="69.299,106.371 72.799,95.621 57.191,95.621 60.691,106.371 		"/>
		<polygon fill="#4C4B4B" points="60.691,23.948 57.191,34.698 72.799,34.698 69.299,23.948 		"/>
	</g>
	<g>
		<polygon fill="#4C4B4B" points="23.864,69.423 34.614,72.924 34.614,57.316 23.864,60.815 		"/>
		<polygon fill="#4C4B4B" points="106.286,60.816 95.536,57.316 95.536,72.924 106.286,69.424 		"/>
	</g>
	<g>
		<g>
			<polygon fill="#4C4B4B" points="47.995,102.857 56.441,95.344 42.966,87.467 40.563,98.514 			"/>
			<polygon fill="#4C4B4B" points="82.153,27.355 73.707,34.871 87.182,42.746 89.584,31.699 			"/>
		</g>
		<g>
			<polygon fill="#4C4B4B" points="27.245,48.048 34.761,56.494 42.636,43.02 31.588,40.617 			"/>
			<polygon fill="#4C4B4B" points="102.748,82.207 95.232,73.761 87.358,87.234 98.405,89.639 			"/>
		</g>
	</g>
	<g>
		<g>
			<polygon fill="#4C4B4B" points="31.663,89.564 42.717,87.195 34.883,73.695 27.342,82.119 			"/>
			<polygon fill="#4C4B4B" points="98.628,40.747 87.573,43.116 95.408,56.614 102.948,48.191 			"/>
		</g>
		<g>
			<polygon fill="#4C4B4B" points="40.659,31.652 43.029,42.707 56.527,34.873 48.104,27.332 			"/>
			<polygon fill="#4C4B4B" points="89.477,98.619 87.107,87.563 73.609,95.396 82.032,102.939 			"/>
		</g>
	</g>
</g>
</svg>
