<?xml version="1.0" encoding="utf-8"?>
<!-- Generator: Adobe Illustrator 22.1.0, SVG Export Plug-In . SVG Version: 6.00 Build 0)  -->
<svg version="1.1" id="Calque_1" xmlns="http://www.w3.org/2000/svg" xmlns:xlink="http://www.w3.org/1999/xlink" x="0px" y="0px"
	 viewBox="0 0 130 130" style="enable-background:new 0 0 130 130;" xml:space="preserve">
<style type="text/css">
	.st0{fill:none;stroke:#4C4B4B;stroke-width:10;stroke-miterlimit:10;}
	.st1{fill:none;stroke:#4C4B4B;stroke-width:6;stroke-miterlimit:10;}
	.st2{fill:none;stroke:#4C4B4B;stroke-width:3;stroke-miterlimit:10;}
	.st3{fill:#4C4B4B;}
</style>
<circle class="st0" cx="65" cy="65" r="60"/>
<g>
	<path class="st1" d="M97.1,101.2H60.9c-2.1,0-3.8-1.7-3.8-3.8V45c0-2.1,1.7-3.8,3.8-3.8h36.2c2.1,0,3.8,1.7,3.8,3.8v52.4
		C100.8,99.5,99.2,101.2,97.1,101.2z"/>
	<line class="st2" x1="64.6" y1="51.7" x2="93.4" y2="51.7"/>
	<line class="st2" x1="64.6" y1="61.3" x2="93.4" y2="61.3"/>
	<line class="st2" x1="64.6" y1="71" x2="93.4" y2="71"/>
	<line class="st2" x1="64.6" y1="80.7" x2="93.4" y2="80.7"/>
	<line class="st2" x1="64.6" y1="90.3" x2="93.4" y2="90.3"/>
</g>
<g>
	<path class="st3" d="M77.7,34.8H54.4c-2.1,0-3.8,1.7-3.8,3.8v45.7H37.8c-2.1,0-3.8-1.7-3.8-3.8V28.2c0-2.1,1.7-3.8,3.8-3.8h36.2
		c2.1,0,3.8,1.7,3.8,3.8V34.8z"/>
	<path class="st3" d="M68.1,25.6H43.6c-0.4,0-0.8-0.3-0.8-0.8v-2.3c0-0.4,0.3-0.8,0.8-0.8h24.5c0.4,0,0.8,0.3,0.8,0.8v2.3
		C68.8,25.3,68.5,25.6,68.1,25.6z"/>
	<circle class="st3" cx="55.8" cy="20.5" r="3.7"/>
</g>
</svg>
