<?xml version="1.0" encoding="iso-8859-1"?>
<!-- Generator: Adobe Illustrator 16.0.0, SVG Export Plug-In . SVG Version: 6.00 Build 0)  -->
<!DOCTYPE svg PUBLIC "-//W3C//DTD SVG 1.1//EN" "http://www.w3.org/Graphics/SVG/1.1/DTD/svg11.dtd" [
	<!ENTITY ns_flows "http://ns.adobe.com/Flows/1.0/">
	<!ENTITY ns_extend "http://ns.adobe.com/Extensibility/1.0/">
	<!ENTITY ns_ai "http://ns.adobe.com/AdobeIllustrator/10.0/">
	<!ENTITY ns_graphs "http://ns.adobe.com/Graphs/1.0/">
]>
<svg version="1.1" id="Calque_1" xmlns:x="&ns_extend;" xmlns:i="&ns_ai;" xmlns:graph="&ns_graphs;"
	 xmlns="http://www.w3.org/2000/svg" xmlns:xlink="http://www.w3.org/1999/xlink" xmlns:a="http://ns.adobe.com/AdobeSVGViewerExtensions/3.0/"
	 x="0px" y="0px" width="129.99px" height="129.991px" viewBox="0 0 129.99 129.991" enable-background="new 0 0 129.99 129.991"
	 xml:space="preserve">
<circle fill="none" stroke="#4C4B4B" stroke-width="10" stroke-miterlimit="10" cx="64.995" cy="64.994" r="59.995"/>
<g>
	<line fill="none" stroke="#4C4B4B" stroke-width="5" stroke-miterlimit="10" x1="33.373" y1="25.927" x2="33.373" y2="101.42"/>
	<line fill="none" stroke="#4C4B4B" stroke-width="5" stroke-miterlimit="10" x1="111.087" y1="63.674" x2="33.373" y2="63.674"/>
	<g>
		<g>
			<g>
				<g>
					<g>
						<rect x="107.459" y="80.524" fill="#4C4B4B" width="3.728" height="1.777"/>
						<rect x="101.908" y="80.524" fill="#4C4B4B" width="3.728" height="1.777"/>
						<rect x="96.357" y="80.524" fill="#4C4B4B" width="3.728" height="1.777"/>
						<rect x="90.807" y="80.524" fill="#4C4B4B" width="3.727" height="1.777"/>
						<rect x="85.256" y="80.524" fill="#4C4B4B" width="3.728" height="1.777"/>
						<rect x="79.704" y="80.524" fill="#4C4B4B" width="3.727" height="1.777"/>
						<rect x="74.154" y="80.524" fill="#4C4B4B" width="3.727" height="1.777"/>
					</g>
				</g>
				<g>
					<g>
						<rect x="68.603" y="80.524" fill="#4C4B4B" width="3.727" height="1.777"/>
						<rect x="63.051" y="80.524" fill="#4C4B4B" width="3.727" height="1.777"/>
						<rect x="57.501" y="80.524" fill="#4C4B4B" width="3.727" height="1.777"/>
						<rect x="51.95" y="80.524" fill="#4C4B4B" width="3.727" height="1.777"/>
						<rect x="46.399" y="80.524" fill="#4C4B4B" width="3.727" height="1.777"/>
						<rect x="40.847" y="80.524" fill="#4C4B4B" width="3.727" height="1.777"/>
						<rect x="35.297" y="80.524" fill="#4C4B4B" width="3.727" height="1.777"/>
					</g>
				</g>
			</g>
		</g>
	</g>
	<g>
		<path fill="none" stroke="#4C4B4B" stroke-width="3" stroke-miterlimit="10" d="M36.804,62.261c0,0,0.363-1.045,0.808-2.322
			s0.808-3.729,0.808-5.45s0.817-4.491,1.816-6.156c1-1.666,2.271-5.208,2.826-7.873c0,0,0,0,0-0.605c0-0.606,0-0.606,0-0.606
			c1-1.999,1.817-4.314,1.817-5.147s0.318-1.242,0.707-0.909c0.389,0.333,0.707,1.378,0.707,2.321c0,0.944,0.227,2.261,0.504,2.927
			c0.278,0.666,0.505,1.802,0.505,2.523s0.182,3.039,0.403,5.148c0,0,0,0,0.404,1.312c0.404,1.312,1.615,4.339,1.817,5.349
			s-0.606,4.239,0,4.844c0.605,0.606,4.239,10.9,4.037,11.506s-0.202,0.605-0.202,0.605c0.116,5.44,0.89,10.3,1.72,10.799
			c0.831,0.5,1.51,0.5,1.51,0c0-0.499,0.363-2.27,0.808-3.936c0,0,0,0,0.403-1.412c0.403-1.414,1.01-2.625,1.211-3.23
			c0.201-0.605,0.201-0.605,0.201-0.605c-0.111-3.441,0.423-8.074,1.186-10.294s1.581-4.945,1.817-6.056
			c0.236-1.11,0.521-3.654,0.632-5.652c0,0,0,0-0.203-0.605c-0.202-0.605-0.202-0.605-0.202-0.605
			c0.161-1.776,2.25-1.503,4.644,0.606c0,0,0,0-0.203,0.807c-0.201,0.808-0.201,0.808-0.201,0.808
			c0.666,3.664,1.574,4.844,2.018,2.624c0.445-2.22,0.809-5.354,0.809-6.964c0-1.61,0.521-4.653,1.16-6.763s1.41-5.289,1.716-7.065
			s1.282-1.776,2.17,0c0,0,0,0,0.202,0.605c0.201,0.606,0.201,0.606,0.201,0.606c0.666,2.775,1.438,6,1.716,7.166
			s1.05,1.438,1.716,0.605s1.483-2.786,1.816-4.34c0,0,0,0,0.404,1.01c0.403,1.01,2.018,6.46,2.018,7.065s0,0.605,0,0.605
			c0,2.554,0.727,5.006,1.615,5.45s2.796,1.625,4.239,2.624c0,0,0,0,0-2.22c0-2.221,0-2.221,0-2.221
			c0-1.221,0.817-0.676,1.817,1.211c0,0,0,0,0.201,1.413s2.422,6.863,3.432,8.681c0.361,0.65,0.879,1.898,1.394,3.231"/>
	</g>
	<g>
		<path fill="none" stroke="#4C4B4B" stroke-width="3" stroke-miterlimit="10" d="M102.407,53.784c0,0,1.953,1.953,4.34,4.339
			c2.387,2.387,4.66,4.578,5.05,4.869s0.39,0.836,0,1.211c-0.39,0.375-2.656,2.629-5.036,5.008
			c-2.379,2.379-4.326,4.325-4.326,4.325"/>
	</g>
	<text transform="matrix(1 0 0 1 42.2559 101.4214)" fill="#4C4B4B" font-family="'SourceSansPro-SemiboldIt'" font-size="21.8005">y = f(x)</text>
</g>
</svg>
