<?xml version="1.0" encoding="utf-8"?>
<!-- Generator: Adobe Illustrator 22.1.0, SVG Export Plug-In . SVG Version: 6.00 Build 0)  -->
<svg version="1.1" id="Layer_1" xmlns="http://www.w3.org/2000/svg" xmlns:xlink="http://www.w3.org/1999/xlink" x="0px" y="0px"
	 viewBox="0 0 130 130" style="enable-background:new 0 0 130 130;" xml:space="preserve">
<style type="text/css">
	.st0{fill:none;stroke:#544F4E;stroke-width:10;stroke-miterlimit:10;}
	.st1{fill:#544F4E;}
</style>
<g>
	<ellipse transform="matrix(0.1592 -0.9872 0.9872 0.1592 -9.5189 118.8136)" class="st0" cx="65" cy="65" rx="60" ry="60"/>
	<g>
		<path class="st1" d="M73.1,99.4c0,3.1-2.6,5.7-5.7,5.7h-4.8c-3.1,0-5.7-2.6-5.7-5.7V30.7c0-3.1,2.6-5.7,5.7-5.7h4.8
			c3.1,0,5.7,2.6,5.7,5.7V99.4z"/>
	</g>
	<g>
		<path class="st1" d="M30.6,73.1c-3.1,0-5.7-2.6-5.7-5.7v-4.8c0-3.1,2.6-5.7,5.7-5.7h68.7c3.1,0,5.7,2.6,5.7,5.7v4.8
			c0,3.1-2.6,5.7-5.7,5.7H30.6z"/>
	</g>
</g>
</svg>
