<?xml version="1.0" encoding="utf-8"?>
<!-- Generator: Adobe Illustrator 22.1.0, SVG Export Plug-In . SVG Version: 6.00 Build 0)  -->
<svg version="1.1" id="Layer_1" xmlns="http://www.w3.org/2000/svg" xmlns:xlink="http://www.w3.org/1999/xlink" x="0px" y="0px"
	 viewBox="0 0 130 130" style="enable-background:new 0 0 130 130;" xml:space="preserve">
<style type="text/css">
	.st0{fill:none;stroke:#544F4E;stroke-width:10;stroke-miterlimit:10;}
	.st1{fill:#544F4E;}
	.st2{fill:none;stroke:#544F4E;stroke-width:4.5;stroke-miterlimit:10;}
	.st3{fill:none;stroke:#544F4E;stroke-width:4.2124;stroke-miterlimit:10;}
</style>
<path class="st0" d="M125,65c0,33.1-26.9,60-60,60S5,98.1,5,65C5,31.9,31.9,5,65,5S125,31.9,125,65z"/>
<g>
	<path class="st1" d="M32,56.2c6.9,0,6.6,16.8-0.8,37.6h63.9c7.4-20.8,7.7-37.6,0.8-37.6H32z"/>
	<g>
		<path class="st2" d="M34.1,92.9l17.2-48.7c0.6-1.8,2.2-3.3,3.4-3.3H81h24.6h3.4c1.3,0,1.8,1.5,1.1,3.3L92.9,92.9"/>
	</g>
	<line class="st3" x1="59.3" y1="37.3" x2="76.7" y2="37.3"/>
</g>
<line class="st2" x1="33.4" y1="72.5" x2="13.2" y2="72.5"/>
<line class="st2" x1="43.8" y1="49.3" x2="18.7" y2="49.3"/>
<line class="st2" x1="62.9" y1="30.5" x2="31.3" y2="30.5"/>
</svg>
