<?xml version="1.0" encoding="utf-8"?>
<!-- Generator: Adobe Illustrator 22.1.0, SVG Export Plug-In . SVG Version: 6.00 Build 0)  -->
<svg version="1.1" id="Layer_1" xmlns="http://www.w3.org/2000/svg" xmlns:xlink="http://www.w3.org/1999/xlink" x="0px" y="0px"
	 viewBox="0 0 130 130" style="enable-background:new 0 0 130 130;" xml:space="preserve">
<style type="text/css">
	.st0{fill:none;stroke:#544F4E;stroke-width:10;stroke-miterlimit:10;}
	.st1{fill:none;stroke:#544F4E;stroke-width:9;stroke-miterlimit:10;}
	.st2{fill:#544F4E;}
</style>
<g>
	<ellipse transform="matrix(0.1592 -0.9872 0.9872 0.1592 -9.5189 118.8136)" class="st0" cx="65" cy="65" rx="60" ry="60"/>
	<path class="st1" d="M75.7,96.8c-11.5,3.8-24.7,1.1-33.9-8.1c-13-13-13-34,0-47"/>
	<path class="st1" d="M54.8,33.6c11.5-3.8,24.8-1.1,34,8.1c13,13,13,34,0,47"/>
	<g>
		<path class="st2" d="M38.2,45.7c0,0,0.6,1.2,1.4,2.6l3,5.8c0.7,1.4,1.7,2.5,2.1,2.6c0.5,0,1.1-1.2,1.3-2.7l3.4-18.3
			c0.3-1.5,0.3-3,0-3.2c-0.3-0.2-1.7,0-3.2,0.5l-17.5,6.3c-1.5,0.5-2.6,1.3-2.5,1.8s1.4,1.2,2.9,1.7l6.3,2
			C37,45.2,38.2,45.6,38.2,45.7z"/>
	</g>
	<g>
		<path class="st2" d="M91.8,84.8c0,0-0.7-1.1-1.6-2.4l-3.5-5.6c-0.8-1.3-1.9-2.4-2.3-2.4c-0.5,0-1,1.3-1.1,2.8l-1.9,18.5
			c-0.2,1.6,0,3,0.2,3.2c0.3,0.2,1.7-0.2,3.1-0.8l16.9-7.8c1.4-0.6,2.5-1.5,2.3-2c-0.1-0.4-1.5-1.1-3-1.4l-6.4-1.5
			C93.1,85.1,91.9,84.8,91.8,84.8z"/>
	</g>
</g>
</svg>
