<?xml version="1.0" encoding="utf-8"?>
<!-- Generator: Adobe Illustrator 22.1.0, SVG Export Plug-In . SVG Version: 6.00 Build 0)  -->
<svg version="1.1" id="Layer_1" xmlns="http://www.w3.org/2000/svg" xmlns:xlink="http://www.w3.org/1999/xlink" x="0px" y="0px"
	 viewBox="0 0 130 130" style="enable-background:new 0 0 130 130;" xml:space="preserve">
<style type="text/css">
	.st0{fill:none;stroke:#4D4C4D;stroke-width:10;stroke-miterlimit:10;}
	.st1{fill:none;stroke:#4D4C4D;stroke-width:6;stroke-miterlimit:10;}
	.st2{fill:none;stroke:#4D4C4D;stroke-width:4;stroke-miterlimit:10;}
	.st3{fill:#4D4C4D;}
	.st4{fill:#4D4C4D;stroke:#4D4C4D;stroke-width:2;stroke-miterlimit:10;}
	.st5{fill:none;stroke:#4D4C4D;stroke-width:2;stroke-miterlimit:10;}
	.st6{fill:none;stroke:#4D4C4D;stroke-miterlimit:10;}
</style>
<ellipse transform="matrix(0.1592 -0.9872 0.9872 0.1592 -9.5189 118.8136)" class="st0" cx="65" cy="65" rx="60" ry="60"/>
<path class="st1" d="M67.9,103.4H34.3c-3.2,0-5.8-2.6-5.8-5.7V33.6c0-3.2,2.6-5.7,5.8-5.7h61.9c3.2,0,5.8,2.6,5.8,5.7v27.9"/>
<rect x="47.4" y="27.9" class="st2" width="36" height="31"/>
<rect x="47.4" y="27.9" class="st3" width="27.2" height="31"/>
<g>
	<polyline class="st4" points="84,97.3 102.9,72.4 95.9,67.1 77,92 	"/>
	<path class="st5" d="M95.9,67.1l1.8-2.4c0.4-0.6,1.5-0.5,2.4,0.2l3.8,2.9c0.9,0.7,1.2,1.7,0.8,2.2l-1.8,2.3"/>
	<polygon class="st5" points="76.5,92.7 73.4,103.6 73.8,103.9 83.4,98 84.6,96.5 77.6,91.2 	"/>
	<polygon class="st4" points="74.2,100.7 73.4,103.6 73.8,103.9 76.4,102.3 	"/>
	<path class="st6" d="M76.7,93c0.3-0.5,1-0.6,1.4-0.2c0.4,0.3,0.5,1,0.2,1.4c0.3-0.5,1-0.6,1.4-0.2c0.4,0.3,0.5,1,0.2,1.4
		c0.3-0.5,1-0.6,1.4-0.2c0.4,0.3,0.5,1,0.2,1.4c0.3-0.5,1-0.6,1.4-0.2c0.4,0.3,0.5,1,0.2,1.4"/>
</g>
</svg>
