<?xml version="1.0" encoding="iso-8859-1"?>
<!-- Generator: Adobe Illustrator 16.0.0, SVG Export Plug-In . SVG Version: 6.00 Build 0)  -->
<!DOCTYPE svg PUBLIC "-//W3C//DTD SVG 1.1//EN" "http://www.w3.org/Graphics/SVG/1.1/DTD/svg11.dtd" [
	<!ENTITY ns_flows "http://ns.adobe.com/Flows/1.0/">
	<!ENTITY ns_extend "http://ns.adobe.com/Extensibility/1.0/">
	<!ENTITY ns_ai "http://ns.adobe.com/AdobeIllustrator/10.0/">
	<!ENTITY ns_graphs "http://ns.adobe.com/Graphs/1.0/">
]>
<svg version="1.1" id="Calque_1" xmlns:x="&ns_extend;" xmlns:i="&ns_ai;" xmlns:graph="&ns_graphs;"
	 xmlns="http://www.w3.org/2000/svg" xmlns:xlink="http://www.w3.org/1999/xlink" xmlns:a="http://ns.adobe.com/AdobeSVGViewerExtensions/3.0/"
	 x="0px" y="0px" width="129.99px" height="129.99px" viewBox="0 0 129.99 129.99" enable-background="new 0 0 129.99 129.99"
	 xml:space="preserve">
<circle fill="none" stroke="#4C4B4B" stroke-width="10" stroke-miterlimit="10" cx="64.995" cy="64.995" r="59.995"/>
<path fill="none" stroke="#4C4B4B" stroke-width="6" stroke-miterlimit="10" d="M67.879,103.379H34.296
	c-3.224,0-5.835-2.555-5.835-5.707V33.587c0-3.152,2.611-5.708,5.835-5.708h61.915c3.223,0,5.834,2.556,5.834,5.708v27.876"/>
<rect x="47.378" y="27.879" fill="none" stroke="#4C4B4B" stroke-width="4" stroke-miterlimit="10" width="36" height="31"/>
<rect x="47.378" y="27.879" fill="#4C4B4B" width="27.167" height="31"/>
<g>
	<polyline fill="#4C4B4B" stroke="#4C4B4B" stroke-width="2" stroke-miterlimit="10" points="83.969,97.328 102.904,72.367 
		95.928,67.074 76.991,92.035 	"/>
	<path fill="none" stroke="#4C4B4B" stroke-width="2" stroke-miterlimit="10" d="M95.928,67.074l1.783-2.351
		c0.434-0.573,1.5-0.497,2.379,0.171l3.793,2.876c0.879,0.668,1.24,1.673,0.805,2.247l-1.783,2.35"/>
	<polygon fill="#FFFFFF" stroke="#4C4B4B" stroke-width="2" stroke-miterlimit="10" points="76.46,92.734 73.4,103.592 
		73.806,103.9 83.438,98.029 84.603,96.494 77.625,91.199 	"/>
	<polygon fill="#4C4B4B" stroke="#4C4B4B" stroke-width="2" stroke-miterlimit="10" points="74.21,100.707 73.398,103.59 
		73.803,103.898 76.359,102.338 	"/>
	<path fill="#FFFFFF" stroke="#4C4B4B" stroke-miterlimit="10" d="M77.15,92.443c0.343-0.453,0.98-0.551,1.419-0.219
		c0.44,0.336,0.518,0.975,0.173,1.428c0.345-0.453,0.982-0.551,1.422-0.217s0.518,0.971,0.174,1.426
		c0.344-0.455,0.98-0.551,1.42-0.217s0.517,0.973,0.172,1.428c0.345-0.455,0.981-0.553,1.422-0.219
		c0.439,0.334,0.518,0.971,0.173,1.426"/>
</g>
</svg>
