<?xml version="1.0" encoding="utf-8"?>
<!-- Generator: Adobe Illustrator 22.1.0, SVG Export Plug-In . SVG Version: 6.00 Build 0)  -->
<svg version="1.1" id="Layer_1" xmlns="http://www.w3.org/2000/svg" xmlns:xlink="http://www.w3.org/1999/xlink" x="0px" y="0px"
	 viewBox="0 0 103.5 105.3" style="enable-background:new 0 0 103.5 105.3;" xml:space="preserve">
<style type="text/css">
	.st0{fill:#C5171A;}
	.st1{fill:none;stroke:#C51718;stroke-width:10;stroke-miterlimit:10;}
</style>
<g>
	<g>
		<g>
			<path class="st0" d="M52.1,89.2c-1.6,0-3-0.6-4.1-1.7c-1.1-1.1-1.6-2.5-1.6-4.3s0.5-3.1,1.6-4.3c1.1-1.1,2.4-1.7,4.1-1.7
				c1.6,0,3,0.6,4,1.7c1.1,1.1,1.6,2.5,1.6,4.3s-0.5,3.1-1.6,4.3C55.1,88.7,53.8,89.2,52.1,89.2z M52,72c-1.6,0-2.9-1.3-3-2.8
				l-1-20.3c-0.1-1.6-0.2-4.1-0.2-5.7l-0.1-3c0-1.6,1.2-2.8,2.8-2.8h3.1c1.6,0,2.8,1.3,2.7,2.8l-0.1,3c-0.1,1.6-0.2,4.1-0.2,5.7
				l-1,20.3c-0.1,1.6-1.4,2.8-3,2.8H52z"/>
		</g>
	</g>
</g>
<g>
	<path class="st1" d="M5.3,97.7c-0.7,1.4,0,2.5,1.6,2.5h89.8c1.6,0,2.3-1.1,1.6-2.5L53,6c-0.7-1.4-1.8-1.4-2.5,0L5.3,97.7z"/>
</g>
</svg>
