<?xml version="1.0" encoding="utf-8"?>
<!-- Generator: Adobe Illustrator 22.1.0, SVG Export Plug-In . SVG Version: 6.00 Build 0)  -->
<svg version="1.1" id="Layer_1" xmlns="http://www.w3.org/2000/svg" xmlns:xlink="http://www.w3.org/1999/xlink" x="0px" y="0px"
	 viewBox="0 0 130 130" style="enable-background:new 0 0 130 130;" xml:space="preserve">
<style type="text/css">
	.st0{fill:none;stroke:#4C4B4B;stroke-width:10;stroke-miterlimit:10;}
	.st1{fill:none;stroke:#4C4B4B;stroke-width:5;stroke-miterlimit:10;}
	.st2{fill:#4C4B4B;stroke:#4D4B4B;stroke-width:3;stroke-miterlimit:10;}
</style>
<path class="st0" d="M125,65c0,33.1-26.9,60-60,60C31.9,125,5,98.1,5,65C5,31.9,31.9,5,65,5C98.1,5,125,31.9,125,65z"/>
<line class="st0" x1="50.7" y1="17.9" x2="50.7" y2="72.4"/>
<line class="st0" x1="112.7" y1="75.7" x2="45.8" y2="75.7"/>
<line class="st1" x1="73" y1="58.7" x2="73" y2="75.7"/>
<line class="st1" x1="98.5" y1="58.7" x2="98.5" y2="75.7"/>
<line class="st1" x1="67.7" y1="55.2" x2="50.7" y2="55.2"/>
<line class="st1" x1="67.7" y1="35.2" x2="50.7" y2="35.2"/>
<g>
	<path class="st2" d="M28.6,61.5L21,45.8h3.5l3.3,7.2c0.8,1.9,1.6,3.7,2.5,5.6h0.2c0.9-1.9,1.8-3.7,2.6-5.6l3.3-7.2h3.4l-7.7,15.7
		v9.9h-3.3V61.5z"/>
</g>
<g>
	<path class="st2" d="M71,98.4l-7-12.4h3.6l3.5,6.5c0.6,1.2,1.2,2.2,2,3.7h0.2c0.7-1.5,1.2-2.5,1.8-3.7l3.4-6.5h3.4l-7,12.5
		l7.5,13.1h-3.6l-3.8-6.9c-0.7-1.3-1.4-2.6-2.2-4.1h-0.2c-0.7,1.6-1.4,2.8-2,4.1l-3.7,6.9h-3.4L71,98.4z"/>
</g>
</svg>
