<?xml version="1.0" encoding="utf-8"?>
<!-- Generator: Adobe Illustrator 22.1.0, SVG Export Plug-In . SVG Version: 6.00 Build 0)  -->
<svg version="1.1" id="Layer_1" xmlns="http://www.w3.org/2000/svg" xmlns:xlink="http://www.w3.org/1999/xlink" x="0px" y="0px"
	 viewBox="0 0 130 130" style="enable-background:new 0 0 130 130;" xml:space="preserve">
<style type="text/css">
	.st0{fill:none;stroke:#4C4B4B;stroke-width:10;stroke-miterlimit:10;}
	.st1{fill:#4C4B4B;}
	.st2{fill:none;stroke:#4C4B4B;stroke-width:12;stroke-miterlimit:10;}
</style>
<path class="st0" d="M125,65c0,33.1-26.9,60-60,60C31.9,125,5,98.1,5,65C5,31.9,31.9,5,65,5C98.1,5,125,31.9,125,65z"/>
<path class="st1" d="M98,101.8H33.3c-3.1,0-5.7-2.6-5.7-5.7V67.8c0-3.1,2.5-5.7,5.7-5.7H98c3.1,0,5.7,2.5,5.7,5.7v28.3
	C103.7,99.2,101.1,101.8,98,101.8z"/>
<path class="st2" d="M44.5,64.9V37c0-7.8,6.4-14.2,14.2-14.2h14c7.8,0,14.2,6.4,14.2,14.2v6.9"/>
</svg>
