<?xml version="1.0" encoding="utf-8"?>
<!-- Generator: Adobe Illustrator 22.1.0, SVG Export Plug-In . SVG Version: 6.00 Build 0)  -->
<svg version="1.1" id="Calque_1" xmlns="http://www.w3.org/2000/svg" xmlns:xlink="http://www.w3.org/1999/xlink" x="0px" y="0px"
	 viewBox="0 0 998 582" style="enable-background:new 0 0 998 582;" xml:space="preserve">
<style type="text/css">
	.st0{fill:#919191;}
</style>
<path class="st0" d="M998,499c0,8.7-3.3,16.3-10,23l-50,50c-6.7,6.7-14.3,10-23,10c-8.7,0-16.3-3.3-23-10L499,179L106,572
	c-6.7,6.7-14.3,10-23,10c-8.7,0-16.3-3.3-23-10l-50-50c-6.7-6.7-10-14.3-10-23c0-8.7,3.3-16.3,10-23L476,10c6.7-6.7,14.3-10,23-10
	c8.7,0,16.3,3.3,23,10l466,466C994.7,482.7,998,490.3,998,499z"/>
</svg>
