<?xml version="1.0" encoding="utf-8"?>
<!-- Generator: Adobe Illustrator 22.1.0, SVG Export Plug-In . SVG Version: 6.00 Build 0)  -->
<svg version="1.1" id="Layer_1" xmlns="http://www.w3.org/2000/svg" xmlns:xlink="http://www.w3.org/1999/xlink" x="0px" y="0px"
	 viewBox="0 0 130 130" style="enable-background:new 0 0 130 130;" xml:space="preserve">
<style type="text/css">
	.st0{fill:#4D4C4D;}
	.st1{fill:none;stroke:#4D4C4D;stroke-width:2;stroke-miterlimit:10;}
	.st2{fill:none;stroke:#4D4C4D;stroke-width:10;stroke-miterlimit:10;}
</style>
<path class="st0" d="M72.7,45.4l17-25.8H73.5l-8.4,15.7l-8.5-15.7H40.4l17,25.8L40.1,71.6h16.2l8.9-16.2l8.8,16.2h16.2L72.7,45.4z
	 M51.6,69.9c-2.5,0-4.5-2-4.5-4.5c0-2.5,2-4.5,4.5-4.5c2.5,0,4.5,2,4.5,4.5C56.2,67.9,54.1,69.9,51.6,69.9z"/>
<path class="st0" d="M72.6,81l-10.2-1.6l-5.4,5.4l0.3,1.9l0.7,4.5l0.6,3.8l20.4,20.4L93,101.4L72.6,81z M63.2,87.9
	c-1.6,0-2.9-1.3-2.9-2.9c0-1.6,1.3-2.9,2.9-2.9c1.6,0,2.9,1.3,2.9,2.9C66,86.6,64.7,87.9,63.2,87.9z M69.1,99.5l-3.6-10.1l1.2-1.2
	l10,3.7l-1.5,1.5l-7.4-2.9l0,0l2.9,7.5L69.1,99.5z M73.6,104.1l1.5-1.5l7.6,3l0,0l-3-7.6l1.5-1.5l3.7,10l-1.3,1.3L73.6,104.1z"/>
<path class="st1" d="M60.8,66.4c3.7,1.8,6.3,5.7,6.3,10.1c0,1-0.1,1.9-0.3,2.8"/>
<path class="st1" d="M64.1,84.1c-2.1,2.3-5.1,3.7-8.4,3.7c-6.2,0-11.3-5.1-11.3-11.3c0-5.8,4.4-10.7,10.1-11.2"/>
<path class="st2" d="M125,65c0,33.1-26.9,60-60,60C31.9,125,5,98.1,5,65C5,31.9,31.9,5,65,5C98.1,5,125,31.9,125,65z"/>
</svg>
