<?xml version="1.0" encoding="iso-8859-1"?>
<!-- Generator: Adobe Illustrator 16.0.0, SVG Export Plug-In . SVG Version: 6.00 Build 0)  -->
<!DOCTYPE svg PUBLIC "-//W3C//DTD SVG 1.1//EN" "http://www.w3.org/Graphics/SVG/1.1/DTD/svg11.dtd" [
	<!ENTITY ns_flows "http://ns.adobe.com/Flows/1.0/">
	<!ENTITY ns_extend "http://ns.adobe.com/Extensibility/1.0/">
	<!ENTITY ns_ai "http://ns.adobe.com/AdobeIllustrator/10.0/">
	<!ENTITY ns_graphs "http://ns.adobe.com/Graphs/1.0/">
]>
<svg version="1.1" id="Calque_1" xmlns:x="&ns_extend;" xmlns:i="&ns_ai;" xmlns:graph="&ns_graphs;"
	 xmlns="http://www.w3.org/2000/svg" xmlns:xlink="http://www.w3.org/1999/xlink" xmlns:a="http://ns.adobe.com/AdobeSVGViewerExtensions/3.0/"
	 x="0px" y="0px" width="129.99px" height="129.99px" viewBox="0 0 129.99 129.99" enable-background="new 0 0 129.99 129.99"
	 xml:space="preserve">
<g>
	<path fill="#4C4B4B" d="M72.747,45.408l17.354,26.226H73.902l-8.773-16.198l-8.87,16.198H40.062l17.354-26.226l-16.97-25.839
		h16.198l8.485,15.717l8.388-15.717h16.196L72.747,45.408z"/>
	<circle fill="#FFFFFF" cx="51.633" cy="65.374" r="4.518"/>
	<polygon fill="#4C4B4B" points="57.895,91.246 58.477,95.055 78.888,115.467 92.97,101.387 72.56,80.973 62.354,79.414 
		56.917,84.852 57.207,86.74 	"/>
	<path fill="#FFFFFF" d="M66.688,88.266l10.026,3.699l-1.519,1.512l-7.445-2.936l-0.027,0.027l2.891,7.463l-1.52,1.51L65.456,89.49
		L66.688,88.266z"/>
	<path fill="#FFFFFF" d="M83.608,107.84l-9.985-3.744l1.519-1.508l7.56,3.049l0.028-0.027l-3.004-7.576l1.518-1.51l3.684,10.006
		L83.608,107.84z"/>
	<circle fill="#FFFFFF" cx="63.159" cy="84.986" r="2.873"/>
	<path fill="none" stroke="#FFFFFF" stroke-width="4" stroke-miterlimit="10" d="M60.764,66.436
		c3.724,1.847,6.284,5.688,6.284,10.127c0,0.957-0.119,1.886-0.344,2.773"/>
	<path fill="none" stroke="#FFFFFF" stroke-width="4" stroke-miterlimit="10" d="M64.132,84.139
		c-2.067,2.285-5.057,3.721-8.382,3.721c-6.239,0-11.297-5.058-11.297-11.297c0-5.749,4.292-10.494,9.847-11.205"/>
	<path fill="none" stroke="#4C4B4B" stroke-width="2" stroke-miterlimit="10" d="M60.764,66.436
		c3.724,1.847,6.284,5.688,6.284,10.127c-0.001,0.957-0.121,1.886-0.345,2.773"/>
	<path fill="none" stroke="#4C4B4B" stroke-width="2" stroke-miterlimit="10" d="M64.131,84.137
		c-2.067,2.287-5.056,3.723-8.381,3.723c-6.239,0-11.297-5.058-11.297-11.297c0-5.848,4.442-10.659,10.138-11.239"/>
</g>
<circle fill="none" stroke="#4C4B4B" stroke-width="10" stroke-miterlimit="10" cx="64.995" cy="64.994" r="59.995"/>
</svg>
