<?xml version="1.0" encoding="utf-8"?>
<!-- Generator: Adobe Illustrator 22.1.0, SVG Export Plug-In . SVG Version: 6.00 Build 0)  -->
<svg version="1.1" id="Layer_1" xmlns="http://www.w3.org/2000/svg" xmlns:xlink="http://www.w3.org/1999/xlink" x="0px" y="0px"
	 viewBox="0 0 130 130" style="enable-background:new 0 0 130 130;" xml:space="preserve">
<style type="text/css">
	.st0{fill:#544F4E;}
	.st1{fill:none;stroke:#544F4E;stroke-width:6;stroke-miterlimit:10;}
</style>
<g>
	<path class="st0" d="M29.7,35.6h4.2V21h-3.3v-1.6c0.8-0.2,1.6-0.4,2.2-0.6c0.6-0.2,1.2-0.5,1.7-0.9h1.8v17.7h3.8v2.1H29.7V35.6z"/>
	<path class="st0" d="M34.5,75.3c-1.8,0-3.3-0.9-4.3-2.7c-1-1.8-1.5-4.3-1.5-7.7c0-3.3,0.5-5.9,1.5-7.6c1-1.7,2.5-2.6,4.3-2.6
		c1.8,0,3.2,0.9,4.3,2.6c1,1.7,1.5,4.3,1.5,7.6c0,3.3-0.5,5.9-1.5,7.7C37.8,74.4,36.4,75.3,34.5,75.3z M34.5,73.2
		c0.5,0,1-0.2,1.4-0.5c0.4-0.3,0.8-0.8,1.1-1.5c0.3-0.7,0.6-1.5,0.7-2.6c0.2-1,0.3-2.3,0.3-3.7c0-1.4-0.1-2.7-0.3-3.7
		c-0.2-1-0.4-1.9-0.7-2.5c-0.3-0.7-0.7-1.1-1.1-1.4c-0.4-0.3-0.9-0.5-1.4-0.5c-0.5,0-1,0.2-1.5,0.5c-0.4,0.3-0.8,0.8-1.1,1.4
		c-0.3,0.7-0.6,1.5-0.7,2.5C31,62.3,31,63.5,31,65c0,2.9,0.3,5,1,6.3C32.6,72.6,33.5,73.2,34.5,73.2z"/>
	<path class="st0" d="M49.5,72.8h4.2V58.2h-3.3v-1.6c0.8-0.2,1.6-0.4,2.2-0.6c0.6-0.2,1.2-0.5,1.7-0.9H56v17.7h3.8v2.1H49.5V72.8z"
		/>
	<path class="st0" d="M89.2,110h4.2V95.5H90v-1.6c0.8-0.2,1.6-0.4,2.2-0.6c0.6-0.2,1.2-0.5,1.7-0.9h1.8V110h3.8v2.1H89.2V110z"/>
	<path class="st0" d="M49.5,35.6h4.2V21h-3.3v-1.6c0.8-0.2,1.6-0.4,2.2-0.6c0.6-0.2,1.2-0.5,1.7-0.9H56v17.7h3.8v2.1H49.5V35.6z"/>
	<path class="st0" d="M29.7,110h4.2V95.5h-3.3v-1.6c0.8-0.2,1.6-0.4,2.2-0.6c0.6-0.2,1.2-0.5,1.7-0.9h1.8V110h3.8v2.1H29.7V110z"/>
	<path class="st0" d="M54.6,112.9c-1.8,0-3.3-0.9-4.3-2.7c-1-1.8-1.5-4.3-1.5-7.7c0-3.3,0.5-5.9,1.5-7.6c1-1.7,2.5-2.6,4.3-2.6
		c1.8,0,3.2,0.9,4.3,2.6c1,1.7,1.5,4.3,1.5,7.6c0,3.3-0.5,5.9-1.5,7.7C57.9,112,56.5,112.9,54.6,112.9z M54.6,110.9
		c0.5,0,1-0.2,1.4-0.5c0.4-0.3,0.8-0.8,1.1-1.5c0.3-0.7,0.6-1.5,0.7-2.6c0.2-1,0.3-2.3,0.3-3.7c0-1.4-0.1-2.7-0.3-3.7
		c-0.2-1-0.4-1.9-0.7-2.5c-0.3-0.7-0.7-1.1-1.1-1.4c-0.4-0.3-0.9-0.5-1.4-0.5c-0.5,0-1,0.2-1.5,0.5c-0.4,0.3-0.8,0.8-1.1,1.4
		c-0.3,0.7-0.6,1.5-0.7,2.5c-0.2,1-0.3,2.3-0.3,3.7c0,2.9,0.3,5,1,6.3C52.7,110.2,53.6,110.9,54.6,110.9z"/>
	<path class="st0" d="M74.5,75.3c-1.8,0-3.3-0.9-4.3-2.7c-1-1.8-1.5-4.3-1.5-7.7c0-3.3,0.5-5.9,1.5-7.6c1-1.7,2.5-2.6,4.3-2.6
		c1.8,0,3.2,0.9,4.3,2.6c1,1.7,1.5,4.3,1.5,7.6c0,3.3-0.5,5.9-1.5,7.7C77.7,74.4,76.3,75.3,74.5,75.3z M74.5,73.2
		c0.5,0,1-0.2,1.4-0.5c0.4-0.3,0.8-0.8,1.1-1.5c0.3-0.7,0.6-1.5,0.7-2.6c0.2-1,0.3-2.3,0.3-3.7c0-1.4-0.1-2.7-0.3-3.7
		c-0.2-1-0.4-1.9-0.7-2.5c-0.3-0.7-0.7-1.1-1.1-1.4c-0.4-0.3-0.9-0.5-1.4-0.5c-0.5,0-1,0.2-1.5,0.5c-0.4,0.3-0.8,0.8-1.1,1.4
		c-0.3,0.7-0.6,1.5-0.7,2.5c-0.2,1-0.3,2.3-0.3,3.7c0,2.9,0.3,5,1,6.3C72.5,72.6,73.4,73.2,74.5,73.2z"/>
	<path class="st0" d="M94.3,75.3c-1.8,0-3.3-0.9-4.3-2.7c-1-1.8-1.5-4.3-1.5-7.7c0-3.3,0.5-5.9,1.5-7.6c1-1.7,2.5-2.6,4.3-2.6
		c1.8,0,3.2,0.9,4.3,2.6c1,1.7,1.5,4.3,1.5,7.6c0,3.3-0.5,5.9-1.5,7.7C97.5,74.4,96.1,75.3,94.3,75.3z M94.3,73.2
		c0.5,0,1-0.2,1.4-0.5c0.4-0.3,0.8-0.8,1.1-1.5c0.3-0.7,0.6-1.5,0.7-2.6c0.2-1,0.3-2.3,0.3-3.7c0-1.4-0.1-2.7-0.3-3.7
		c-0.2-1-0.4-1.9-0.7-2.5c-0.3-0.7-0.7-1.1-1.1-1.4c-0.4-0.3-0.9-0.5-1.4-0.5c-0.5,0-1,0.2-1.5,0.5c-0.4,0.3-0.8,0.8-1.1,1.4
		c-0.3,0.7-0.6,1.5-0.7,2.5c-0.2,1-0.3,2.3-0.3,3.7c0,2.9,0.3,5,1,6.3C92.4,72.6,93.2,73.2,94.3,73.2z"/>
	<path class="st0" d="M74.5,38c-1.8,0-3.3-0.9-4.3-2.7c-1-1.8-1.5-4.3-1.5-7.7c0-3.3,0.5-5.9,1.5-7.6c1-1.7,2.5-2.6,4.3-2.6
		c1.8,0,3.2,0.9,4.3,2.6c1,1.7,1.5,4.3,1.5,7.6c0,3.3-0.5,5.9-1.5,7.7C77.7,37.2,76.3,38,74.5,38z M74.5,36c0.5,0,1-0.2,1.4-0.5
		c0.4-0.3,0.8-0.8,1.1-1.5c0.3-0.7,0.6-1.5,0.7-2.6c0.2-1,0.3-2.3,0.3-3.7c0-1.4-0.1-2.7-0.3-3.7c-0.2-1-0.4-1.9-0.7-2.5
		c-0.3-0.7-0.7-1.1-1.1-1.4c-0.4-0.3-0.9-0.5-1.4-0.5c-0.5,0-1,0.2-1.5,0.5c-0.4,0.3-0.8,0.8-1.1,1.4c-0.3,0.7-0.6,1.5-0.7,2.5
		c-0.2,1-0.3,2.3-0.3,3.7c0,2.9,0.3,5,1,6.3C72.5,35.3,73.4,36,74.5,36z"/>
	<path class="st0" d="M89.2,35.6h4.2V21H90v-1.6c0.8-0.2,1.6-0.4,2.2-0.6c0.6-0.2,1.2-0.5,1.7-0.9h1.8v17.7h3.8v2.1H89.2V35.6z"/>
	<path class="st1" d="M83,126h2h23.1c1.8,0,3.3-1,3.3-2.2V82.1c0,0,0-29,0-29v-5.3V6.2c0-1.2-1.5-2.2-3.3-2.2H85H45.1H21.9
		c-1.8,0-3.3,1-3.3,2.2v41.7v75.9c0,1.2,1.5,2.2,3.3,2.2C21.9,126,83,126,83,126z"/>
	<path class="st0" d="M69.3,110h4.2V95.5h-3.3v-1.6c0.8-0.2,1.6-0.4,2.2-0.6c0.6-0.2,1.2-0.5,1.7-0.9h1.8V110h3.8v2.1H69.3V110z"/>
</g>
</svg>
