<?xml version="1.0" encoding="iso-8859-1"?>
<!-- Generator: Adobe Illustrator 16.0.0, SVG Export Plug-In . SVG Version: 6.00 Build 0)  -->
<!DOCTYPE svg PUBLIC "-//W3C//DTD SVG 1.1//EN" "http://www.w3.org/Graphics/SVG/1.1/DTD/svg11.dtd" [
	<!ENTITY ns_flows "http://ns.adobe.com/Flows/1.0/">
	<!ENTITY ns_extend "http://ns.adobe.com/Extensibility/1.0/">
	<!ENTITY ns_ai "http://ns.adobe.com/AdobeIllustrator/10.0/">
	<!ENTITY ns_graphs "http://ns.adobe.com/Graphs/1.0/">
]>
<svg version="1.1" id="Calque_1" xmlns:x="&ns_extend;" xmlns:i="&ns_ai;" xmlns:graph="&ns_graphs;"
	 xmlns="http://www.w3.org/2000/svg" xmlns:xlink="http://www.w3.org/1999/xlink" xmlns:a="http://ns.adobe.com/AdobeSVGViewerExtensions/3.0/"
	 x="0px" y="0px" width="129.99px" height="129.991px" viewBox="0 0 129.99 129.991" enable-background="new 0 0 129.99 129.991"
	 xml:space="preserve">
<g>
	<polyline fill="none" stroke="#4C4B4B" stroke-width="5" stroke-miterlimit="10" points="30.281,39.016 30.281,33.487 
		35.39,33.487 	"/>
	<line fill="none" stroke="#4C4B4B" stroke-width="5" stroke-miterlimit="10" x1="30.281" y1="58.95" x2="30.281" y2="47.973"/>
	<line fill="none" stroke="#4C4B4B" stroke-width="5" stroke-miterlimit="10" x1="30.281" y1="78.886" x2="30.281" y2="67.907"/>
	<polyline fill="none" stroke="#4C4B4B" stroke-width="5" stroke-miterlimit="10" points="35.391,92.142 30.281,92.142 
		30.281,87.845 	"/>
	<line fill="none" stroke="#4C4B4B" stroke-width="5" stroke-miterlimit="10" x1="52.854" y1="92.142" x2="44.348" y2="92.142"/>
	<line fill="none" stroke="#4C4B4B" stroke-width="5" stroke-miterlimit="10" x1="70.318" y1="92.142" x2="61.812" y2="92.142"/>
	<line fill="none" stroke="#4C4B4B" stroke-width="5" stroke-miterlimit="10" x1="101.267" y1="47.973" x2="101.267" y2="58.951"/>
	<polyline fill="none" stroke="#4C4B4B" stroke-width="5" stroke-miterlimit="10" points="96.74,33.487 101.267,33.487 
		101.267,39.016 	"/>
	<line fill="none" stroke="#4C4B4B" stroke-width="5" stroke-miterlimit="10" x1="79.276" y1="33.487" x2="87.783" y2="33.487"/>
	<line fill="none" stroke="#4C4B4B" stroke-width="5" stroke-miterlimit="10" x1="61.812" y1="33.487" x2="70.318" y2="33.487"/>
	<line fill="none" stroke="#4C4B4B" stroke-width="5" stroke-miterlimit="10" x1="44.348" y1="33.487" x2="52.854" y2="33.487"/>
</g>
<g>
	<path fill="#4C4B4B" d="M84.439,95.948L69.81,111.333c-0.91,0.959-2.434,0.998-3.393,0.084l-2.451-2.332
		c-0.962-0.912-1-2.432-0.086-3.393l14.627-15.385"/>
	<circle fill="none" stroke="#4C4B4B" stroke-width="5" stroke-miterlimit="10" cx="92.777" cy="81.24" r="17.283"/>
</g>
<circle fill="none" stroke="#4C4B4B" stroke-width="10" stroke-miterlimit="10" cx="64.995" cy="64.994" r="59.995"/>
</svg>
